Lohit-Tamil.ufo
<glyph name="exclam" format="1">
  <advance width="282"/>
  <unicode hex="0021"/>
  <outline>
    <contour>
      <point x="120" y="61"/>
      <point x="141" y="61" type="qcurve" smooth="yes"/>
      <point x="162" y="61"/>
      <point x="191" y="33"/>
      <point x="191" y="12" type="qcurve" smooth="yes"/>
      <point x="191" y="-9"/>
      <point x="162" y="-37"/>
      <point x="141" y="-37" type="qcurve" smooth="yes"/>
      <point x="120" y="-37"/>
      <point x="92" y="-9"/>
      <point x="92" y="12" type="qcurve"/>
      <point x="92" y="33"/>
    </contour>
    <contour>
      <point x="120" y="652"/>
      <point x="141" y="652" type="qcurve" smooth="yes"/>
      <point x="162" y="652"/>
      <point x="191" y="608"/>
      <point x="191" y="578" type="qcurve" smooth="yes"/>
      <point x="191" y="498"/>
      <point x="154" y="178"/>
      <point x="154" y="98" type="qcurve"/>
      <point x="129" y="98" type="line"/>
      <point x="129" y="178"/>
      <point x="92" y="498"/>
      <point x="92" y="578" type="qcurve"/>
      <point x="92" y="609"/>
    </contour>
  </outline>
</glyph>
<glyph name="quotedbl" format="1">
  <advance width="417"/>
  <unicode hex="0022"/>
  <outline>
    <contour>
      <point x="92" y="861" type="line"/>
      <point x="172" y="861" type="line"/>
      <point x="172" y="615" type="line"/>
      <point x="92" y="615" type="line"/>
    </contour>
    <contour>
      <point x="252" y="861" type="line"/>
      <point x="326" y="861" type="line"/>
      <point x="326" y="615" type="line"/>
      <point x="252" y="615" type="line"/>
    </contour>
  </outline>
</glyph>
<glyph name="numbersign" format="1">
  <advance width="967"/>
  <unicode hex="0023"/>
  <outline>
    <contour>
      <point x="218" y="141" type="line"/>
      <point x="92" y="141" type="line"/>
      <point x="102" y="215" type="line"/>
      <point x="235" y="215" type="line"/>
      <point x="311" y="547" type="line"/>
      <point x="128" y="547" type="line"/>
      <point x="138" y="621" type="line"/>
      <point x="328" y="621" type="line"/>
      <point x="379" y="836" type="line"/>
      <point x="452" y="836" type="line"/>
      <point x="402" y="621" type="line"/>
      <point x="648" y="621" type="line"/>
      <point x="698" y="836" type="line"/>
      <point x="772" y="836" type="line"/>
      <point x="722" y="621" type="line"/>
      <point x="875" y="621" type="line"/>
      <point x="865" y="547" type="line"/>
      <point x="704" y="547" type="line"/>
      <point x="628" y="215" type="line"/>
      <point x="840" y="215" type="line"/>
      <point x="830" y="141" type="line"/>
      <point x="611" y="141" type="line"/>
      <point x="575" y="-25" type="line"/>
      <point x="502" y="-25" type="line"/>
      <point x="537" y="141" type="line"/>
      <point x="291" y="141" type="line"/>
      <point x="256" y="-25" type="line"/>
      <point x="182" y="-25" type="line"/>
    </contour>
    <contour>
      <point x="309" y="215" type="line"/>
      <point x="554" y="215" type="line"/>
      <point x="631" y="547" type="line"/>
      <point x="385" y="547" type="line"/>
    </contour>
  </outline>
</glyph>
<glyph name="dollar" format="1">
  <advance width="569"/>
  <unicode hex="0024"/>
  <outline>
    <contour>
      <point x="243" y="-57" type="line"/>
      <point x="243" y="5" type="line"/>
      <point x="209" y="5"/>
      <point x="130" y="45"/>
      <point x="92" y="84" type="qcurve"/>
      <point x="132" y="138" type="line"/>
      <point x="153" y="108"/>
      <point x="210" y="66"/>
      <point x="243" y="58" type="qcurve"/>
      <point x="243" y="315" type="line"/>
      <point x="174" y="347"/>
      <point x="92" y="439"/>
      <point x="92" y="483" type="qcurve" smooth="yes"/>
      <point x="92" y="541"/>
      <point x="181" y="623"/>
      <point x="243" y="623" type="qcurve"/>
      <point x="243" y="666" type="line"/>
      <point x="295" y="666" type="line"/>
      <point x="295" y="623" type="line"/>
      <point x="337" y="619"/>
      <point x="409" y="584"/>
      <point x="434" y="554" type="qcurve"/>
      <point x="402" y="510" type="line"/>
      <point x="386" y="536"/>
      <point x="328" y="564"/>
      <point x="295" y="564" type="qcurve"/>
      <point x="295" y="365" type="line"/>
      <point x="379" y="326"/>
      <point x="477" y="209"/>
      <point x="477" y="150" type="qcurve" smooth="yes"/>
      <point x="477" y="90"/>
      <point x="370" y="4"/>
      <point x="295" y="4" type="qcurve"/>
      <point x="295" y="-57" type="line"/>
    </contour>
    <contour>
      <point x="378" y="81" type="qcurve" smooth="yes"/>
      <point x="413" y="109"/>
      <point x="413" y="151" type="qcurve" smooth="yes"/>
      <point x="413" y="188"/>
      <point x="350" y="266"/>
      <point x="295" y="297" type="qcurve"/>
      <point x="295" y="57" type="line"/>
      <point x="299" y="57"/>
      <point x="306.797" y="56.5" type="qcurve" smooth="yes"/>
      <point x="309.961" y="56.2881"/>
      <point x="313.1" y="56.2881" type="qcurve" smooth="yes"/>
      <point x="347.003" y="56.2881"/>
    </contour>
    <contour>
      <point x="243" y="565" type="line"/>
      <point x="204" y="558"/>
      <point x="154" y="513"/>
      <point x="154" y="484" type="qcurve" smooth="yes"/>
      <point x="154" y="453"/>
      <point x="203" y="396"/>
      <point x="243" y="376" type="qcurve"/>
    </contour>
  </outline>
</glyph>
<glyph name="percent" format="1">
  <advance width="799"/>
  <unicode hex="0025"/>
  <outline>
    <contour>
      <point x="658" y="738" type="line"/>
      <point x="707" y="738" type="line"/>
      <point x="141" y="0" type="line"/>
      <point x="92" y="0" type="line"/>
    </contour>
    <contour>
      <point x="92" y="615" type="line" smooth="yes"/>
      <point x="92" y="665"/>
      <point x="165" y="738"/>
      <point x="215" y="738" type="qcurve" smooth="yes"/>
      <point x="277" y="738" type="line" smooth="yes"/>
      <point x="327" y="738"/>
      <point x="400" y="665"/>
      <point x="400" y="615" type="qcurve" smooth="yes"/>
      <point x="400" y="492" type="line" smooth="yes"/>
      <point x="400" y="442"/>
      <point x="327" y="369"/>
      <point x="277" y="369" type="qcurve" smooth="yes"/>
      <point x="215" y="369" type="line" smooth="yes"/>
      <point x="165" y="369"/>
      <point x="92" y="441"/>
      <point x="92" y="492" type="qcurve"/>
    </contour>
    <contour>
      <point x="189" y="418"/>
      <point x="215" y="418" type="qcurve" smooth="yes"/>
      <point x="277" y="418" type="line" smooth="yes"/>
      <point x="303" y="418"/>
      <point x="338" y="461"/>
      <point x="338" y="492" type="qcurve" smooth="yes"/>
      <point x="338" y="615" type="line" smooth="yes"/>
      <point x="338" y="646"/>
      <point x="302" y="688"/>
      <point x="277" y="688" type="qcurve" smooth="yes"/>
      <point x="215" y="688" type="line" smooth="yes"/>
      <point x="189" y="688"/>
      <point x="154" y="645"/>
      <point x="154" y="615" type="qcurve" smooth="yes"/>
      <point x="154" y="492" type="line"/>
      <point x="154" y="461"/>
    </contour>
    <contour>
      <point x="400" y="246" type="line" smooth="yes"/>
      <point x="400" y="296"/>
      <point x="472" y="369"/>
      <point x="522" y="369" type="qcurve" smooth="yes"/>
      <point x="584" y="369" type="line" smooth="yes"/>
      <point x="634" y="369"/>
      <point x="707" y="296"/>
      <point x="707" y="246" type="qcurve" smooth="yes"/>
      <point x="707" y="123" type="line" smooth="yes"/>
      <point x="707" y="73"/>
      <point x="634" y="0"/>
      <point x="584" y="0" type="qcurve" smooth="yes"/>
      <point x="522" y="0" type="line" smooth="yes"/>
      <point x="472" y="0"/>
      <point x="400" y="73"/>
      <point x="400" y="123" type="qcurve"/>
    </contour>
    <contour>
      <point x="497" y="49"/>
      <point x="522" y="49" type="qcurve" smooth="yes"/>
      <point x="584" y="49" type="line" smooth="yes"/>
      <point x="610" y="49"/>
      <point x="645" y="92"/>
      <point x="645" y="123" type="qcurve" smooth="yes"/>
      <point x="645" y="246" type="line" smooth="yes"/>
      <point x="645" y="277"/>
      <point x="610" y="320"/>
      <point x="584" y="320" type="qcurve" smooth="yes"/>
      <point x="522" y="320" type="line" smooth="yes"/>
      <point x="496" y="320"/>
      <point x="461" y="277"/>
      <point x="461" y="246" type="qcurve" smooth="yes"/>
      <point x="461" y="123" type="line"/>
      <point x="461" y="92"/>
    </contour>
  </outline>
</glyph>
<glyph name="ampersand" format="1">
  <advance width="802"/>
  <unicode hex="0026"/>
  <outline>
    <contour>
      <point x="92" y="93"/>
      <point x="92" y="161" type="qcurve" smooth="yes"/>
      <point x="92" y="218"/>
      <point x="178" y="333"/>
      <point x="253" y="376" type="qcurve"/>
      <point x="231" y="414"/>
      <point x="209" y="481"/>
      <point x="209" y="506" type="qcurve" smooth="yes"/>
      <point x="209" y="569"/>
      <point x="305" y="659"/>
      <point x="374" y="659" type="qcurve" smooth="yes"/>
      <point x="421" y="659"/>
      <point x="487" y="588"/>
      <point x="487" y="537" type="qcurve" smooth="yes"/>
      <point x="487" y="492"/>
      <point x="400" y="397"/>
      <point x="327" y="363" type="qcurve"/>
      <point x="344" y="335"/>
      <point x="435" y="173"/>
      <point x="456" y="149" type="qcurve"/>
      <point x="514" y="207"/>
      <point x="575" y="333"/>
      <point x="575" y="393" type="qcurve"/>
      <point x="633" y="393" type="line"/>
      <point x="616" y="296"/>
      <point x="542" y="146"/>
      <point x="490" y="103" type="qcurve"/>
      <point x="513" y="70"/>
      <point x="564" y="33"/>
      <point x="585" y="33" type="qcurve" smooth="yes"/>
      <point x="608" y="33"/>
      <point x="656" y="68"/>
      <point x="674" y="98" type="qcurve"/>
      <point x="711" y="68" type="line"/>
      <point x="689" y="30"/>
      <point x="622" y="-14"/>
      <point x="585" y="-14" type="qcurve" smooth="yes"/>
      <point x="549" y="-14"/>
      <point x="479" y="32"/>
      <point x="451" y="71" type="qcurve"/>
      <point x="417" y="37"/>
      <point x="326" y="-1"/>
      <point x="278" y="-1" type="qcurve"/>
      <point x="201" y="-1"/>
    </contour>
    <contour>
      <point x="388" y="82"/>
      <point x="425" y="113" type="qcurve"/>
      <point x="404" y="138"/>
      <point x="338" y="243"/>
      <point x="284" y="338" type="qcurve"/>
      <point x="221" y="302"/>
      <point x="150" y="208"/>
      <point x="150" y="161" type="qcurve" smooth="yes"/>
      <point x="150" y="114"/>
      <point x="226" y="49"/>
      <point x="280" y="49" type="qcurve"/>
      <point x="313" y="49"/>
    </contour>
    <contour>
      <point x="436" y="500"/>
      <point x="436" y="537" type="qcurve" smooth="yes"/>
      <point x="436" y="569"/>
      <point x="397" y="613"/>
      <point x="370" y="613" type="qcurve" smooth="yes"/>
      <point x="325" y="613"/>
      <point x="259" y="551"/>
      <point x="259" y="506" type="qcurve" smooth="yes"/>
      <point x="259" y="483"/>
      <point x="282" y="425"/>
      <point x="304" y="395" type="qcurve"/>
      <point x="364" y="423"/>
    </contour>
  </outline>
</glyph>
<glyph name="quotesingle" format="1">
  <advance width="264"/>
  <unicode hex="0027"/>
  <outline>
    <contour>
      <point x="92" y="861" type="line"/>
      <point x="172" y="861" type="line"/>
      <point x="172" y="615" type="line"/>
      <point x="92" y="615" type="line"/>
    </contour>
  </outline>
</glyph>
<glyph name="parenleft" format="1">
  <advance width="430"/>
  <unicode hex="0028"/>
  <outline>
    <contour>
      <point x="194" y="668"/>
      <point x="289" y="762" type="qcurve"/>
      <point x="338" y="738" type="line"/>
      <point x="249" y="649"/>
      <point x="154" y="393"/>
      <point x="154" y="246" type="qcurve" smooth="yes"/>
      <point x="154" y="98"/>
      <point x="250" y="-157"/>
      <point x="338" y="-246" type="qcurve"/>
      <point x="289" y="-270" type="line"/>
      <point x="194" y="-175"/>
      <point x="92" y="92"/>
      <point x="92" y="246" type="qcurve"/>
      <point x="92" y="400"/>
    </contour>
  </outline>
</glyph>
<glyph name="parenright" format="1">
  <advance width="430"/>
  <unicode hex="0029"/>
  <outline>
    <contour>
      <point x="289" y="104"/>
      <point x="289" y="246" type="qcurve" smooth="yes"/>
      <point x="289" y="387"/>
      <point x="187" y="643"/>
      <point x="92" y="738" type="qcurve"/>
      <point x="141" y="762" type="line"/>
      <point x="236" y="667"/>
      <point x="338" y="400"/>
      <point x="338" y="246" type="qcurve" smooth="yes"/>
      <point x="338" y="92"/>
      <point x="236" y="-176"/>
      <point x="141" y="-270" type="qcurve"/>
      <point x="92" y="-246" type="line"/>
      <point x="187" y="-151"/>
    </contour>
  </outline>
</glyph>
<glyph name="asterisk" format="1">
  <advance width="559"/>
  <unicode hex="002A"/>
  <outline>
    <contour>
      <point x="209.844" y="360.442" type="line"/>
      <point x="149.922" y="400.391" type="line"/>
      <point x="249.792" y="520.234" type="line"/>
      <point x="96.6582" y="493.603" type="line"/>
      <point x="90" y="573.498" type="line"/>
      <point x="243.134" y="560.182" type="line"/>
      <point x="156.58" y="666.71" type="line"/>
      <point x="229.818" y="700" type="line"/>
      <point x="276.424" y="586.814" type="line"/>
      <point x="329.688" y="700" type="line"/>
      <point x="396.268" y="666.71" type="line"/>
      <point x="316.372" y="560.182" type="line"/>
      <point x="469.506" y="580.156" type="line"/>
      <point x="469.506" y="506.918" type="line"/>
      <point x="316.372" y="520.234" type="line"/>
      <point x="429.558" y="400.391" type="line"/>
      <point x="356.32" y="360.442" type="line"/>
      <point x="289.74" y="506.918" type="line"/>
    </contour>
  </outline>
</glyph>
<glyph name="plus" format="1">
  <advance width="614"/>
  <unicode hex="002B"/>
  <outline>
    <contour>
      <point x="92" y="270" type="line"/>
      <point x="277" y="270" type="line"/>
      <point x="277" y="430" type="line"/>
      <point x="338" y="430" type="line"/>
      <point x="338" y="270" type="line"/>
      <point x="522" y="270" type="line"/>
      <point x="522" y="221" type="line"/>
      <point x="338" y="221" type="line"/>
      <point x="338" y="61" type="line"/>
      <point x="277" y="61" type="line"/>
      <point x="277" y="221" type="line"/>
      <point x="92" y="221" type="line"/>
    </contour>
  </outline>
</glyph>
<glyph name="hyphen" format="1">
  <advance width="491"/>
  <unicode hex="002D"/>
  <outline>
    <contour>
      <point x="92" y="295" type="line"/>
      <point x="400" y="295" type="line"/>
      <point x="400" y="246" type="line"/>
      <point x="92" y="246" type="line"/>
    </contour>
  </outline>
</glyph>
<glyph name="slash" format="1">
  <advance width="491"/>
  <unicode hex="002F"/>
  <outline>
    <contour>
      <point x="338" y="799" type="line"/>
      <point x="400" y="799" type="line"/>
      <point x="154" y="-123" type="line"/>
      <point x="92" y="-123" type="line"/>
    </contour>
  </outline>
</glyph>
<glyph name="zero" format="1">
  <advance width="614"/>
  <unicode hex="0030"/>
  <outline>
    <contour>
      <point x="205" y="774"/>
      <point x="307" y="774" type="qcurve" smooth="yes"/>
      <point x="409" y="774"/>
      <point x="553" y="537"/>
      <point x="553" y="369" type="qcurve" smooth="yes"/>
      <point x="553" y="212"/>
      <point x="409" y="-12"/>
      <point x="307" y="-12" type="qcurve" smooth="yes"/>
      <point x="205" y="-12"/>
      <point x="61" y="211"/>
      <point x="61" y="369" type="qcurve"/>
      <point x="61" y="537"/>
    </contour>
    <contour>
      <point x="231" y="37"/>
      <point x="307" y="37" type="qcurve" smooth="yes"/>
      <point x="383" y="37"/>
      <point x="492" y="231"/>
      <point x="492" y="369" type="qcurve" smooth="yes"/>
      <point x="492" y="517"/>
      <point x="384" y="725"/>
      <point x="307" y="725" type="qcurve" smooth="yes"/>
      <point x="231" y="725"/>
      <point x="123" y="516"/>
      <point x="123" y="369" type="qcurve"/>
      <point x="123" y="231"/>
    </contour>
  </outline>
</glyph>
<glyph name="one" format="1">
  <advance width="614"/>
  <unicode hex="0031"/>
  <outline>
    <contour>
      <point x="104" y="49" type="line"/>
      <point x="277" y="49" type="line"/>
      <point x="277" y="652" type="line"/>
      <point x="241" y="622"/>
      <point x="152" y="590"/>
      <point x="104" y="590" type="qcurve"/>
      <point x="104" y="639" type="line"/>
      <point x="165" y="639"/>
      <point x="267" y="713"/>
      <point x="289" y="774" type="qcurve"/>
      <point x="338" y="774" type="line"/>
      <point x="338" y="49" type="line"/>
      <point x="510" y="49" type="line"/>
      <point x="510" y="0" type="line"/>
      <point x="104" y="0" type="line"/>
    </contour>
  </outline>
</glyph>
<glyph name="two" format="1">
  <advance width="614"/>
  <unicode hex="0032"/>
  <outline>
    <contour>
      <point x="68" y="49" type="line" smooth="yes"/>
      <point x="68" y="123"/>
      <point x="193" y="282"/>
      <point x="301" y="344" type="qcurve" smooth="yes"/>
      <point x="381" y="391"/>
      <point x="473" y="519"/>
      <point x="473" y="584" type="qcurve" smooth="yes"/>
      <point x="473" y="648"/>
      <point x="372" y="738"/>
      <point x="301" y="738" type="qcurve" smooth="yes"/>
      <point x="230" y="738"/>
      <point x="129" y="629"/>
      <point x="129" y="553" type="qcurve" smooth="yes"/>
      <point x="129" y="532"/>
      <point x="141" y="488"/>
      <point x="154" y="467" type="qcurve"/>
      <point x="104" y="443" type="line"/>
      <point x="86" y="475"/>
      <point x="68" y="530"/>
      <point x="68" y="553" type="qcurve" smooth="yes"/>
      <point x="68" y="650"/>
      <point x="204" y="787"/>
      <point x="301" y="787" type="qcurve" smooth="yes"/>
      <point x="398" y="787"/>
      <point x="535" y="668"/>
      <point x="535" y="584" type="qcurve" smooth="yes"/>
      <point x="535" y="507"/>
      <point x="409" y="345"/>
      <point x="301" y="283" type="qcurve" smooth="yes"/>
      <point x="221" y="236"/>
      <point x="129" y="112"/>
      <point x="129" y="49" type="qcurve"/>
      <point x="547" y="49" type="line"/>
      <point x="547" y="0" type="line"/>
      <point x="68" y="0" type="line"/>
    </contour>
  </outline>
</glyph>
<glyph name="three" format="1">
  <advance width="614"/>
  <unicode hex="0033"/>
  <outline>
    <contour>
      <point x="123" y="234" type="line"/>
      <point x="137" y="154"/>
      <point x="241" y="49"/>
      <point x="307" y="49" type="qcurve" smooth="yes"/>
      <point x="383" y="49"/>
      <point x="492" y="157"/>
      <point x="492" y="234" type="qcurve" smooth="yes"/>
      <point x="492" y="305"/>
      <point x="384" y="406"/>
      <point x="307" y="406" type="qcurve" smooth="yes"/>
      <point x="246" y="406" type="line"/>
      <point x="246" y="443" type="line"/>
      <point x="455" y="713" type="line"/>
      <point x="61" y="713" type="line"/>
      <point x="61" y="762" type="line"/>
      <point x="504" y="762" type="line"/>
      <point x="529" y="725" type="line"/>
      <point x="332" y="455" type="line"/>
      <point x="424" y="455"/>
      <point x="553" y="326"/>
      <point x="553" y="234" type="qcurve" smooth="yes"/>
      <point x="553" y="132"/>
      <point x="409" y="-12"/>
      <point x="307" y="-12" type="qcurve" smooth="yes"/>
      <point x="212" y="-12"/>
      <point x="70" y="129"/>
      <point x="61" y="234" type="qcurve"/>
    </contour>
  </outline>
</glyph>
<glyph name="four" format="1">
  <advance width="614"/>
  <unicode hex="0034"/>
  <outline>
    <contour>
      <point x="61" y="209" type="line"/>
      <point x="381" y="762" type="line"/>
      <point x="430" y="762" type="line"/>
      <point x="430" y="221" type="line"/>
      <point x="553" y="221" type="line"/>
      <point x="553" y="172" type="line"/>
      <point x="430" y="172" type="line"/>
      <point x="430" y="49" type="line"/>
      <point x="492" y="49" type="line"/>
      <point x="492" y="0" type="line"/>
      <point x="307" y="0" type="line"/>
      <point x="307" y="49" type="line"/>
      <point x="369" y="49" type="line"/>
      <point x="369" y="172" type="line"/>
      <point x="61" y="172" type="line"/>
    </contour>
    <contour>
      <point x="369" y="221" type="line"/>
      <point x="369" y="627" type="line"/>
      <point x="135" y="221" type="line"/>
    </contour>
  </outline>
</glyph>
<glyph name="five" format="1">
  <advance width="614"/>
  <unicode hex="0035"/>
  <outline>
    <contour>
      <point x="123" y="172" type="line"/>
      <point x="145" y="111"/>
      <point x="240" y="37"/>
      <point x="295" y="37" type="qcurve" smooth="yes"/>
      <point x="371" y="37"/>
      <point x="479" y="160"/>
      <point x="479" y="246" type="qcurve" smooth="yes"/>
      <point x="479" y="332"/>
      <point x="371" y="455"/>
      <point x="295" y="455" type="qcurve" smooth="yes"/>
      <point x="250" y="455"/>
      <point x="160" y="407"/>
      <point x="123" y="363" type="qcurve"/>
      <point x="74" y="381" type="line"/>
      <point x="135" y="762" type="line"/>
      <point x="529" y="762" type="line"/>
      <point x="529" y="713" type="line"/>
      <point x="184" y="713" type="line"/>
      <point x="148" y="455" type="line"/>
      <point x="184" y="485"/>
      <point x="259" y="516"/>
      <point x="295" y="516" type="qcurve" smooth="yes"/>
      <point x="397" y="516"/>
      <point x="541" y="358"/>
      <point x="541" y="246" type="qcurve" smooth="yes"/>
      <point x="541" y="139"/>
      <point x="397" y="-12"/>
      <point x="295" y="-12" type="qcurve" smooth="yes"/>
      <point x="221" y="-12"/>
      <point x="100" y="75"/>
      <point x="74" y="148" type="qcurve"/>
    </contour>
  </outline>
</glyph>
<glyph name="six" format="1">
  <advance width="614"/>
  <unicode hex="0036"/>
  <outline>
    <contour>
      <point x="68" y="393" type="qcurve"/>
      <point x="68" y="550"/>
      <point x="223" y="774"/>
      <point x="332" y="774" type="qcurve" smooth="yes"/>
      <point x="402" y="774"/>
      <point x="521" y="687"/>
      <point x="547" y="615" type="qcurve"/>
      <point x="498" y="596" type="line"/>
      <point x="483" y="653"/>
      <point x="390" y="725"/>
      <point x="332" y="725" type="qcurve" smooth="yes"/>
      <point x="248" y="725"/>
      <point x="129" y="531"/>
      <point x="129" y="393" type="qcurve"/>
      <point x="159" y="445"/>
      <point x="258" y="504"/>
      <point x="313" y="504" type="qcurve" smooth="yes"/>
      <point x="410" y="504"/>
      <point x="547" y="353"/>
      <point x="547" y="246" type="qcurve" smooth="yes"/>
      <point x="547" y="139"/>
      <point x="411" y="-12"/>
      <point x="313" y="-12" type="qcurve" smooth="yes"/>
      <point x="201" y="-12"/>
      <point x="68" y="209"/>
    </contour>
    <contour>
      <point x="237" y="37"/>
      <point x="313" y="37" type="qcurve" smooth="yes"/>
      <point x="384" y="37"/>
      <point x="486" y="160"/>
      <point x="486" y="246" type="qcurve" smooth="yes"/>
      <point x="486" y="332"/>
      <point x="385" y="455"/>
      <point x="313" y="455" type="qcurve" smooth="yes"/>
      <point x="264" y="455"/>
      <point x="165" y="382"/>
      <point x="129" y="320" type="qcurve"/>
      <point x="129" y="203"/>
    </contour>
  </outline>
</glyph>
<glyph name="seven" format="1">
  <advance width="613"/>
  <unicode hex="0037"/>
  <outline>
    <contour>
      <point x="82" y="762" type="line"/>
      <point x="500" y="762" type="line"/>
      <point x="531" y="701" type="line"/>
      <point x="353" y="320" type="line" smooth="yes"/>
      <point x="322" y="267"/>
      <point x="291" y="104"/>
      <point x="291" y="0" type="qcurve"/>
      <point x="230" y="0" type="line"/>
      <point x="230" y="107"/>
      <point x="268" y="282"/>
      <point x="304" y="344" type="qcurve" smooth="yes"/>
      <point x="470" y="713" type="line"/>
      <point x="144" y="713" type="line"/>
      <point x="144" y="615" type="line"/>
      <point x="82" y="615" type="line"/>
    </contour>
  </outline>
</glyph>
<glyph name="eight" format="1">
  <advance width="614"/>
  <unicode hex="0038"/>
  <outline>
    <contour>
      <point x="135" y="384"/>
      <point x="197" y="406" type="qcurve"/>
      <point x="152" y="432"/>
      <point x="98" y="518"/>
      <point x="98" y="565" type="qcurve" smooth="yes"/>
      <point x="98" y="651"/>
      <point x="221" y="774"/>
      <point x="307" y="774" type="qcurve" smooth="yes"/>
      <point x="393" y="774"/>
      <point x="516" y="652"/>
      <point x="516" y="565" type="qcurve" smooth="yes"/>
      <point x="516" y="517"/>
      <point x="463" y="431"/>
      <point x="418" y="406" type="qcurve"/>
      <point x="479" y="384"/>
      <point x="553" y="275"/>
      <point x="553" y="209" type="qcurve" smooth="yes"/>
      <point x="553" y="117"/>
      <point x="409" y="-12"/>
      <point x="307" y="-12" type="qcurve" smooth="yes"/>
      <point x="205" y="-12"/>
      <point x="61" y="117"/>
      <point x="61" y="209" type="qcurve"/>
      <point x="61" y="275"/>
    </contour>
    <contour>
      <point x="231" y="37"/>
      <point x="307" y="37" type="qcurve" smooth="yes"/>
      <point x="383" y="37"/>
      <point x="492" y="138"/>
      <point x="492" y="209" type="qcurve" smooth="yes"/>
      <point x="492" y="280"/>
      <point x="384" y="381"/>
      <point x="307" y="381" type="qcurve" smooth="yes"/>
      <point x="231" y="381"/>
      <point x="123" y="280"/>
      <point x="123" y="209" type="qcurve"/>
      <point x="123" y="138"/>
    </contour>
    <contour>
      <point x="160" y="565" type="qcurve"/>
      <point x="160" y="508"/>
      <point x="246" y="430"/>
      <point x="307" y="430" type="qcurve" smooth="yes"/>
      <point x="368" y="430"/>
      <point x="455" y="509"/>
      <point x="455" y="565" type="qcurve" smooth="yes"/>
      <point x="455" y="631"/>
      <point x="369" y="725"/>
      <point x="307" y="725" type="qcurve" smooth="yes"/>
      <point x="246" y="725"/>
      <point x="160" y="632"/>
    </contour>
  </outline>
</glyph>
<glyph name="nine" format="1">
  <advance width="614"/>
  <unicode hex="0039"/>
  <outline>
    <contour>
      <point x="197" y="774"/>
      <point x="289" y="774" type="qcurve" smooth="yes"/>
      <point x="396" y="774"/>
      <point x="547" y="545"/>
      <point x="547" y="381" type="qcurve" smooth="yes"/>
      <point x="547" y="218"/>
      <point x="388" y="-12"/>
      <point x="277" y="-12" type="qcurve" smooth="yes"/>
      <point x="209" y="-12"/>
      <point x="93" y="75"/>
      <point x="68" y="148" type="qcurve"/>
      <point x="117" y="172" type="line"/>
      <point x="139" y="111"/>
      <point x="226" y="37"/>
      <point x="277" y="37" type="qcurve" smooth="yes"/>
      <point x="363" y="37"/>
      <point x="486" y="238"/>
      <point x="486" y="381" type="qcurve"/>
      <point x="456" y="329"/>
      <point x="356" y="270"/>
      <point x="301" y="270" type="qcurve" smooth="yes"/>
      <point x="204" y="270"/>
      <point x="68" y="414"/>
      <point x="68" y="516" type="qcurve"/>
      <point x="68" y="623"/>
    </contour>
    <contour>
      <point x="230" y="320"/>
      <point x="301" y="320" type="qcurve" smooth="yes"/>
      <point x="348" y="320"/>
      <point x="444" y="392"/>
      <point x="479" y="455" type="qcurve"/>
      <point x="469" y="569"/>
      <point x="360" y="725"/>
      <point x="289" y="725" type="qcurve" smooth="yes"/>
      <point x="223" y="725"/>
      <point x="129" y="602"/>
      <point x="129" y="516" type="qcurve"/>
      <point x="129" y="435"/>
    </contour>
  </outline>
</glyph>
<glyph name="colon" format="1">
  <advance width="282"/>
  <unicode hex="003A"/>
  <outline>
    <contour>
      <point x="120" y="467"/>
      <point x="141" y="467" type="qcurve" smooth="yes"/>
      <point x="162" y="467"/>
      <point x="191" y="439"/>
      <point x="191" y="418" type="qcurve" smooth="yes"/>
      <point x="191" y="397"/>
      <point x="162" y="369"/>
      <point x="141" y="369" type="qcurve" smooth="yes"/>
      <point x="120" y="369"/>
      <point x="92" y="397"/>
      <point x="92" y="418" type="qcurve"/>
      <point x="92" y="439"/>
    </contour>
    <contour>
      <point x="120" y="86"/>
      <point x="141" y="86" type="qcurve" smooth="yes"/>
      <point x="162" y="86"/>
      <point x="191" y="58"/>
      <point x="191" y="37" type="qcurve" smooth="yes"/>
      <point x="191" y="16"/>
      <point x="162" y="-12"/>
      <point x="141" y="-12" type="qcurve" smooth="yes"/>
      <point x="120" y="-12"/>
      <point x="92" y="16"/>
      <point x="92" y="37" type="qcurve"/>
      <point x="92" y="58"/>
    </contour>
  </outline>
</glyph>
<glyph name="semicolon" format="1">
  <advance width="282"/>
  <unicode hex="003B"/>
  <outline>
    <contour>
      <point x="120" y="467"/>
      <point x="141" y="467" type="qcurve" smooth="yes"/>
      <point x="162" y="467"/>
      <point x="191" y="439"/>
      <point x="191" y="418" type="qcurve" smooth="yes"/>
      <point x="191" y="397"/>
      <point x="162" y="369"/>
      <point x="141" y="369" type="qcurve" smooth="yes"/>
      <point x="120" y="369"/>
      <point x="92" y="397"/>
      <point x="92" y="418" type="qcurve"/>
      <point x="92" y="439"/>
    </contour>
    <contour>
      <point x="120" y="86"/>
      <point x="141" y="86" type="qcurve" smooth="yes"/>
      <point x="162" y="86"/>
      <point x="191" y="36"/>
      <point x="191" y="0" type="qcurve" smooth="yes"/>
      <point x="191" y="-45"/>
      <point x="135" y="-116"/>
      <point x="92" y="-123" type="qcurve"/>
      <point x="92" y="-86" type="line"/>
      <point x="115" y="-72"/>
      <point x="141" y="-27"/>
      <point x="141" y="0" type="qcurve"/>
      <point x="120" y="0"/>
      <point x="92" y="22"/>
      <point x="92" y="37" type="qcurve"/>
      <point x="92" y="58"/>
    </contour>
  </outline>
</glyph>
<glyph name="less" format="1">
  <advance width="677"/>
  <unicode hex="003C"/>
  <outline>
    <contour>
      <point x="585" y="-74" type="line"/>
      <point x="92" y="170" type="line"/>
      <point x="92" y="262" type="line"/>
      <point x="584" y="520" type="line"/>
      <point x="584" y="434" type="line"/>
      <point x="166" y="219" type="line"/>
      <point x="584" y="6" type="line"/>
    </contour>
  </outline>
</glyph>
<glyph name="equal" format="1">
  <advance width="491"/>
  <unicode hex="003D"/>
  <outline>
    <contour>
      <point x="400" y="369" type="line"/>
      <point x="400" y="320" type="line"/>
      <point x="92" y="320" type="line"/>
      <point x="92" y="369" type="line"/>
    </contour>
    <contour>
      <point x="92" y="172" type="line"/>
      <point x="400" y="172" type="line"/>
      <point x="400" y="123" type="line"/>
      <point x="92" y="123" type="line"/>
    </contour>
  </outline>
</glyph>
<glyph name="greater" format="1">
  <advance width="677"/>
  <unicode hex="003E"/>
  <outline>
    <contour>
      <point x="511" y="219" type="line"/>
      <point x="93" y="434" type="line"/>
      <point x="93" y="520" type="line"/>
      <point x="585" y="262" type="line"/>
      <point x="585" y="170" type="line"/>
      <point x="92" y="-74" type="line"/>
      <point x="93" y="6" type="line"/>
    </contour>
  </outline>
</glyph>
<glyph name="question" format="1">
  <advance width="614"/>
  <unicode hex="003F"/>
  <outline>
    <contour>
      <point x="280" y="61"/>
      <point x="301" y="61" type="qcurve" smooth="yes"/>
      <point x="322" y="61"/>
      <point x="350" y="33"/>
      <point x="350" y="12" type="qcurve" smooth="yes"/>
      <point x="350" y="-9"/>
      <point x="322" y="-37"/>
      <point x="301" y="-37" type="qcurve" smooth="yes"/>
      <point x="280" y="-37"/>
      <point x="252" y="-9"/>
      <point x="252" y="12" type="qcurve"/>
      <point x="252" y="33"/>
    </contour>
    <contour>
      <point x="215" y="676"/>
      <point x="301" y="676" type="qcurve" smooth="yes"/>
      <point x="393" y="676"/>
      <point x="522" y="547"/>
      <point x="522" y="455" type="qcurve" smooth="yes"/>
      <point x="522" y="390"/>
      <point x="462" y="289"/>
      <point x="412" y="270" type="qcurve" smooth="yes"/>
      <point x="376" y="256"/>
      <point x="332" y="183"/>
      <point x="332" y="135" type="qcurve" smooth="yes"/>
      <point x="332" y="98" type="line"/>
      <point x="270" y="98" type="line"/>
      <point x="270" y="135" type="line" smooth="yes"/>
      <point x="270" y="198"/>
      <point x="321" y="293"/>
      <point x="363" y="307" type="qcurve" smooth="yes"/>
      <point x="407" y="323"/>
      <point x="461" y="404"/>
      <point x="461" y="455" type="qcurve" smooth="yes"/>
      <point x="461" y="526"/>
      <point x="368" y="627"/>
      <point x="301" y="627" type="qcurve" smooth="yes"/>
      <point x="240" y="627"/>
      <point x="154" y="526"/>
      <point x="154" y="455" type="qcurve"/>
      <point x="92" y="455" type="line"/>
      <point x="92" y="547"/>
    </contour>
  </outline>
</glyph>
<glyph name="at" format="1">
  <advance width="1035"/>
  <unicode hex="0040"/>
  <outline>
    <contour>
      <point x="92" y="33"/>
      <point x="92" y="219" type="qcurve" smooth="yes"/>
      <point x="92" y="407"/>
      <point x="350" y="672"/>
      <point x="534" y="672" type="qcurve" smooth="yes"/>
      <point x="704" y="672"/>
      <point x="943" y="428"/>
      <point x="943" y="254" type="qcurve" smooth="yes"/>
      <point x="943" y="147"/>
      <point x="832" y="-5"/>
      <point x="754" y="-5" type="qcurve" smooth="yes"/>
      <point x="715" y="-5"/>
      <point x="654" y="25"/>
      <point x="645" y="49" type="qcurve"/>
      <point x="620" y="24"/>
      <point x="557" y="-2"/>
      <point x="522" y="-2" type="qcurve" smooth="yes"/>
      <point x="438" y="-2"/>
      <point x="321" y="124"/>
      <point x="321" y="213" type="qcurve" smooth="yes"/>
      <point x="321" y="308"/>
      <point x="439" y="443"/>
      <point x="522" y="443" type="qcurve" smooth="yes"/>
      <point x="548" y="443"/>
      <point x="600" y="423"/>
      <point x="622" y="404" type="qcurve"/>
      <point x="622" y="431" type="line"/>
      <point x="680" y="431" type="line"/>
      <point x="680" y="102" type="line" smooth="yes"/>
      <point x="680" y="76"/>
      <point x="724" y="39"/>
      <point x="755" y="39" type="qcurve" smooth="yes"/>
      <point x="810" y="39"/>
      <point x="888" y="166"/>
      <point x="888" y="254" type="qcurve" smooth="yes"/>
      <point x="888" y="408"/>
      <point x="680" y="626"/>
      <point x="534" y="626" type="qcurve" smooth="yes"/>
      <point x="377" y="626"/>
      <point x="152" y="387"/>
      <point x="152" y="219" type="qcurve" smooth="yes"/>
      <point x="152" y="56"/>
      <point x="370" y="-177"/>
      <point x="524" y="-177" type="qcurve" smooth="yes"/>
      <point x="631" y="-177"/>
      <point x="809" y="-93"/>
      <point x="861" y="-20" type="qcurve"/>
      <point x="896" y="-50" type="line"/>
      <point x="837" y="-135"/>
      <point x="642" y="-230"/>
      <point x="527" y="-230" type="qcurve"/>
      <point x="346" y="-230"/>
    </contour>
    <contour>
      <point x="602" y="81"/>
      <point x="622" y="104" type="qcurve"/>
      <point x="622" y="348" type="line"/>
      <point x="610" y="369"/>
      <point x="559" y="393"/>
      <point x="529" y="393" type="qcurve" smooth="yes"/>
      <point x="466" y="393"/>
      <point x="379" y="286"/>
      <point x="379" y="210" type="qcurve" smooth="yes"/>
      <point x="379" y="146"/>
      <point x="463" y="55"/>
      <point x="524" y="55" type="qcurve"/>
      <point x="551" y="55"/>
    </contour>
  </outline>
</glyph>
<glyph name="bracketleft" format="1">
  <advance width="485"/>
  <unicode hex="005B"/>
  <outline>
    <contour>
      <point x="92" y="656" type="line"/>
      <point x="393" y="656" type="line"/>
      <point x="393" y="607" type="line"/>
      <point x="159" y="607" type="line"/>
      <point x="159" y="-130" type="line"/>
      <point x="393" y="-130" type="line"/>
      <point x="393" y="-182" type="line"/>
      <point x="92" y="-182" type="line"/>
    </contour>
  </outline>
</glyph>
<glyph name="backslash" format="1">
  <advance width="730"/>
  <unicode hex="005C"/>
  <outline>
    <contour>
      <point x="584" y="-184" type="line"/>
      <point x="92" y="668" type="line"/>
      <point x="146" y="704" type="line"/>
      <point x="638" y="-148" type="line"/>
    </contour>
  </outline>
</glyph>
<glyph name="bracketright" format="1">
  <advance width="485"/>
  <unicode hex="005D"/>
  <outline>
    <contour>
      <point x="92" y="-155" type="line"/>
      <point x="333" y="-155" type="line"/>
      <point x="333" y="583" type="line"/>
      <point x="92" y="583" type="line"/>
      <point x="92" y="632" type="line"/>
      <point x="393" y="632" type="line"/>
      <point x="393" y="-207" type="line"/>
      <point x="92" y="-207" type="line"/>
    </contour>
  </outline>
</glyph>
<glyph name="asciicircum" format="1">
  <advance width="577"/>
  <unicode hex="005E"/>
  <outline>
    <contour>
      <point x="92" y="649" type="line"/>
      <point x="289" y="861" type="line"/>
      <point x="486" y="639" type="line"/>
      <point x="486" y="565" type="line"/>
      <point x="289" y="777" type="line"/>
      <point x="92" y="565" type="line"/>
    </contour>
  </outline>
</glyph>
<glyph name="underscore" format="1">
  <advance width="765"/>
  <unicode hex="005F"/>
  <outline>
    <contour>
      <point x="674" y="-197" type="line"/>
      <point x="92" y="-197" type="line"/>
      <point x="92" y="-135" type="line"/>
      <point x="674" y="-135" type="line"/>
    </contour>
  </outline>
</glyph>
<glyph name="grave" format="1">
  <advance width="376"/>
  <unicode hex="0060"/>
  <outline>
    <contour>
      <point x="248" y="590" type="line"/>
      <point x="101" y="784" type="line" smooth="yes"/>
      <point x="90" y="801"/>
      <point x="97" y="842"/>
      <point x="113" y="853" type="qcurve" smooth="yes"/>
      <point x="131" y="865"/>
      <point x="179" y="847"/>
      <point x="192" y="821" type="qcurve" smooth="yes"/>
      <point x="284" y="608" type="line"/>
    </contour>
  </outline>
</glyph>
<glyph name="braceleft" format="1">
  <advance width="553"/>
  <unicode hex="007B"/>
  <outline>
    <contour>
      <point x="215" y="288"/>
      <point x="215" y="329" type="qcurve" smooth="yes"/>
      <point x="215" y="449" type="line" smooth="yes"/>
      <point x="215" y="541"/>
      <point x="359" y="670"/>
      <point x="461" y="670" type="qcurve"/>
      <point x="461" y="638" type="line"/>
      <point x="385" y="638"/>
      <point x="277" y="527"/>
      <point x="277" y="449" type="qcurve" smooth="yes"/>
      <point x="277" y="347" type="line" smooth="yes"/>
      <point x="277" y="290"/>
      <point x="204" y="209"/>
      <point x="154" y="209" type="qcurve"/>
      <point x="204" y="209"/>
      <point x="277" y="128"/>
      <point x="277" y="71" type="qcurve" smooth="yes"/>
      <point x="277" y="-31" type="line" smooth="yes"/>
      <point x="277" y="-110"/>
      <point x="385" y="-220"/>
      <point x="461" y="-220" type="qcurve"/>
      <point x="461" y="-252" type="line"/>
      <point x="359" y="-252"/>
      <point x="215" y="-123"/>
      <point x="215" y="-31" type="qcurve" smooth="yes"/>
      <point x="215" y="89" type="line" smooth="yes"/>
      <point x="215" y="131"/>
      <point x="143" y="191"/>
      <point x="92" y="191" type="qcurve"/>
      <point x="92" y="227" type="line"/>
      <point x="142" y="227"/>
    </contour>
  </outline>
</glyph>
<glyph name="bar" format="1">
  <advance width="258"/>
  <unicode hex="007C"/>
  <outline>
    <contour>
      <point x="92" y="565" type="line"/>
      <point x="166" y="565" type="line"/>
      <point x="166" y="-74" type="line"/>
      <point x="92" y="-74" type="line"/>
    </contour>
  </outline>
</glyph>
<glyph name="braceright" format="1">
  <advance width="553"/>
  <unicode hex="007D"/>
  <outline>
    <contour>
      <point x="461" y="191" type="line"/>
      <point x="411" y="191"/>
      <point x="338" y="130"/>
      <point x="338" y="89" type="qcurve" smooth="yes"/>
      <point x="338" y="-31" type="line" smooth="yes"/>
      <point x="338" y="-123"/>
      <point x="194" y="-252"/>
      <point x="92" y="-252" type="qcurve"/>
      <point x="92" y="-220" type="line"/>
      <point x="168" y="-220"/>
      <point x="277" y="-109"/>
      <point x="277" y="-31" type="qcurve" smooth="yes"/>
      <point x="277" y="71" type="line" smooth="yes"/>
      <point x="277" y="128"/>
      <point x="349" y="209"/>
      <point x="400" y="209" type="qcurve"/>
      <point x="350" y="209"/>
      <point x="277" y="290"/>
      <point x="277" y="347" type="qcurve" smooth="yes"/>
      <point x="277" y="449" type="line" smooth="yes"/>
      <point x="277" y="528"/>
      <point x="168" y="638"/>
      <point x="92" y="638" type="qcurve"/>
      <point x="92" y="670" type="line"/>
      <point x="194" y="670"/>
      <point x="338" y="541"/>
      <point x="338" y="449" type="qcurve" smooth="yes"/>
      <point x="338" y="329" type="line" smooth="yes"/>
      <point x="338" y="287"/>
      <point x="411" y="227"/>
      <point x="461" y="227" type="qcurve"/>
    </contour>
  </outline>
</glyph>
<glyph name="asciitilde" format="1">
  <advance width="792"/>
  <unicode hex="007E"/>
  <outline>
    <contour>
      <point x="220" y="356"/>
      <point x="270" y="356" type="qcurve" smooth="yes"/>
      <point x="313" y="356"/>
      <point x="473" y="295"/>
      <point x="516" y="295" type="qcurve" smooth="yes"/>
      <point x="566" y="295"/>
      <point x="648" y="325"/>
      <point x="670" y="350" type="qcurve"/>
      <point x="701" y="307" type="line"/>
      <point x="671" y="271"/>
      <point x="574" y="234"/>
      <point x="516" y="234" type="qcurve" smooth="yes"/>
      <point x="473" y="234"/>
      <point x="313" y="295"/>
      <point x="270" y="295" type="qcurve" smooth="yes"/>
      <point x="229" y="295"/>
      <point x="156" y="259"/>
      <point x="129" y="227" type="qcurve"/>
      <point x="92" y="270" type="line"/>
      <point x="126" y="311"/>
    </contour>
  </outline>
</glyph>
<glyph name="cent" format="1">
  <advance width="555"/>
  <unicode hex="00A2"/>
  <outline>
    <contour>
      <point x="189" y="553"/>
      <point x="294" y="553" type="qcurve" smooth="yes"/>
      <point x="315" y="553"/>
      <point x="352" y="549"/>
      <point x="366" y="546" type="qcurve"/>
      <point x="417" y="669" type="line"/>
      <point x="472" y="669" type="line"/>
      <point x="416" y="524" type="line"/>
      <point x="459" y="494"/>
      <point x="511" y="414"/>
      <point x="515" y="371" type="qcurve"/>
      <point x="452" y="371" type="line"/>
      <point x="450" y="396"/>
      <point x="420" y="449"/>
      <point x="396" y="473" type="qcurve"/>
      <point x="236" y="59" type="line"/>
      <point x="252" y="54"/>
      <point x="282" y="49"/>
      <point x="294" y="49" type="qcurve" smooth="yes"/>
      <point x="364" y="49"/>
      <point x="454" y="125"/>
      <point x="460" y="189" type="qcurve"/>
      <point x="519" y="189" type="line"/>
      <point x="512" y="102"/>
      <point x="388" y="-2"/>
      <point x="294" y="-2" type="qcurve" smooth="yes"/>
      <point x="274" y="-2"/>
      <point x="236" y="4"/>
      <point x="216" y="9" type="qcurve"/>
      <point x="172" y="-104" type="line"/>
      <point x="117" y="-104" type="line"/>
      <point x="170" y="31" type="line"/>
      <point x="120" y="68"/>
      <point x="63" y="198"/>
      <point x="63" y="277" type="qcurve"/>
      <point x="63" y="402"/>
    </contour>
    <contour>
      <point x="302" y="503"/>
      <point x="294" y="503" type="qcurve" smooth="yes"/>
      <point x="215" y="503"/>
      <point x="122" y="379"/>
      <point x="122" y="277" type="qcurve" smooth="yes"/>
      <point x="122" y="220"/>
      <point x="156" y="120"/>
      <point x="188" y="84" type="qcurve"/>
      <point x="350" y="494" type="line"/>
      <point x="330" y="498"/>
    </contour>
  </outline>
</glyph>
<glyph name="multiply" format="1">
  <advance width="532"/>
  <unicode hex="00D7"/>
  <outline>
    <contour>
      <point x="92" y="116" type="line"/>
      <point x="223" y="246" type="line"/>
      <point x="92" y="376" type="line"/>
      <point x="135" y="420" type="line"/>
      <point x="266" y="290" type="line"/>
      <point x="396" y="420" type="line"/>
      <point x="440" y="376" type="line"/>
      <point x="310" y="246" type="line"/>
      <point x="440" y="116" type="line"/>
      <point x="396" y="73" type="line"/>
      <point x="266" y="203" type="line"/>
      <point x="135" y="73" type="line"/>
    </contour>
  </outline>
</glyph>
<glyph name="divide" format="1">
  <advance width="590"/>
  <unicode hex="00F7"/>
  <outline>
    <contour>
      <point x="274" y="135"/>
      <point x="295" y="135" type="qcurve" smooth="yes"/>
      <point x="316" y="135"/>
      <point x="344" y="107"/>
      <point x="344" y="86" type="qcurve" smooth="yes"/>
      <point x="344" y="65"/>
      <point x="316" y="37"/>
      <point x="295" y="37" type="qcurve" smooth="yes"/>
      <point x="274" y="37"/>
      <point x="246" y="65"/>
      <point x="246" y="86" type="qcurve"/>
      <point x="246" y="107"/>
    </contour>
    <contour>
      <point x="92" y="270" type="line"/>
      <point x="498" y="270" type="line"/>
      <point x="498" y="221" type="line"/>
      <point x="92" y="221" type="line"/>
    </contour>
    <contour>
      <point x="274" y="455"/>
      <point x="295" y="455" type="qcurve" smooth="yes"/>
      <point x="316" y="455"/>
      <point x="344" y="427"/>
      <point x="344" y="406" type="qcurve" smooth="yes"/>
      <point x="344" y="385"/>
      <point x="316" y="356"/>
      <point x="295" y="356" type="qcurve" smooth="yes"/>
      <point x="274" y="356"/>
      <point x="246" y="385"/>
      <point x="246" y="406" type="qcurve"/>
      <point x="246" y="427"/>
    </contour>
  </outline>
</glyph>
<glyph name="uni0964" format="1">
  <advance width="338"/>
  <unicode hex="0964"/>
  <outline>
    <contour>
      <point x="184" y="615" type="line"/>
      <point x="246" y="615" type="line"/>
      <point x="246" y="0" type="line"/>
      <point x="184" y="0" type="line"/>
    </contour>
  </outline>
</glyph>
<glyph name="uni0965" format="1">
  <advance width="534"/>
  <unicode hex="0965"/>
  <outline>
    <contour>
      <point x="184" y="615" type="line"/>
      <point x="246" y="615" type="line"/>
      <point x="246" y="0" type="line"/>
      <point x="184" y="0" type="line"/>
    </contour>
    <contour>
      <point x="381" y="615" type="line"/>
      <point x="443" y="615" type="line"/>
      <point x="443" y="0" type="line"/>
      <point x="381" y="0" type="line"/>
    </contour>
  </outline>
</glyph>
<glyph name="u0b82" format="1">
  <advance width="0"/>
  <unicode hex="0B82"/>
  <outline>
    <contour>
      <point x="-123" y="537" type="move" name="_Anchor-0"/>
    </contour>
    <contour>
      <point x="-177" y="799"/>
      <point x="-127" y="799" type="qcurve" smooth="yes"/>
      <point x="-77" y="799"/>
      <point x="-4" y="727"/>
      <point x="-4" y="676" type="qcurve" smooth="yes"/>
      <point x="-4" y="626"/>
      <point x="-76" y="553"/>
      <point x="-127" y="553" type="qcurve" smooth="yes"/>
      <point x="-177" y="553"/>
      <point x="-250" y="626"/>
      <point x="-250" y="676" type="qcurve"/>
      <point x="-250" y="726"/>
    </contour>
    <contour>
      <point x="-157" y="602"/>
      <point x="-127" y="602" type="qcurve" smooth="yes"/>
      <point x="-96" y="602"/>
      <point x="-53" y="645"/>
      <point x="-53" y="676" type="qcurve" smooth="yes"/>
      <point x="-53" y="707"/>
      <point x="-96" y="750"/>
      <point x="-127" y="750" type="qcurve" smooth="yes"/>
      <point x="-158" y="750"/>
      <point x="-200" y="707"/>
      <point x="-200" y="676" type="qcurve"/>
      <point x="-200" y="645"/>
    </contour>
  </outline>
</glyph>
<glyph name="u0B85" format="1">
  <advance width="1138"/>
  <unicode hex="0B85"/>
  <outline>
    <contour>
      <point x="575" y="516" type="move" name="Anchor-0"/>
    </contour>
    <contour>
      <point x="26" y="111" type="line"/>
      <point x="26" y="142"/>
      <point x="76" y="184"/>
      <point x="112" y="184" type="qcurve" smooth="yes"/>
      <point x="813" y="184" type="line"/>
      <point x="819" y="201"/>
      <point x="825" y="238"/>
      <point x="825" y="258" type="qcurve" smooth="yes"/>
      <point x="825" y="329"/>
      <point x="724" y="441"/>
      <point x="647" y="455" type="qcurve"/>
      <point x="668" y="438"/>
      <point x="690" y="386"/>
      <point x="690" y="356" type="qcurve" smooth="yes"/>
      <point x="690" y="306"/>
      <point x="611" y="234"/>
      <point x="554" y="234" type="qcurve" smooth="yes"/>
      <point x="504" y="234"/>
      <point x="431" y="312"/>
      <point x="431" y="369" type="qcurve" smooth="yes"/>
      <point x="431" y="426"/>
      <point x="532" y="504"/>
      <point x="604" y="504" type="qcurve" smooth="yes"/>
      <point x="721" y="504"/>
      <point x="886" y="360"/>
      <point x="886" y="258" type="qcurve" smooth="yes"/>
      <point x="886" y="238"/>
      <point x="880" y="202"/>
      <point x="874" y="184" type="qcurve"/>
      <point x="985" y="184" type="line"/>
      <point x="985" y="492" type="line"/>
      <point x="1046" y="492" type="line"/>
      <point x="1046" y="-123" type="line"/>
      <point x="985" y="-123" type="line"/>
      <point x="985" y="135" type="line"/>
      <point x="862" y="135" type="line"/>
      <point x="825" y="35"/>
      <point x="606" y="-86"/>
      <point x="462" y="-86" type="qcurve" smooth="yes"/>
      <point x="367" y="-86"/>
      <point x="183" y="-36"/>
      <point x="100" y="12" type="qcurve" smooth="yes"/>
      <point x="66" y="32"/>
      <point x="26" y="85"/>
      <point x="26" y="111" type="qcurve"/>
    </contour>
    <contour>
      <point x="527" y="283"/>
      <point x="561" y="283" type="qcurve" smooth="yes"/>
      <point x="594" y="283"/>
      <point x="640" y="326"/>
      <point x="640" y="356" type="qcurve" smooth="yes"/>
      <point x="640" y="392"/>
      <point x="594" y="443"/>
      <point x="561" y="443" type="qcurve" smooth="yes"/>
      <point x="528" y="443"/>
      <point x="481" y="392"/>
      <point x="481" y="356" type="qcurve"/>
      <point x="481" y="325"/>
    </contour>
    <contour>
      <point x="87" y="111" type="line"/>
      <point x="87" y="105"/>
      <point x="100" y="86"/>
      <point x="112" y="74" type="qcurve" smooth="yes"/>
      <point x="165" y="21"/>
      <point x="344" y="-37"/>
      <point x="456" y="-37" type="qcurve" smooth="yes"/>
      <point x="583" y="-37"/>
      <point x="772" y="58"/>
      <point x="800" y="135" type="qcurve"/>
      <point x="112" y="135" type="line" smooth="yes"/>
      <point x="102" y="135"/>
      <point x="87" y="120"/>
      <point x="87" y="111" type="qcurve"/>
    </contour>
  </outline>
</glyph>
<glyph name="u0B87" format="1">
  <advance width="996"/>
  <unicode hex="0B87"/>
  <outline>
    <contour>
      <point x="510" y="820" type="move" name="Anchor-0"/>
    </contour>
    <contour>
      <point x="370" y="246"/>
      <point x="401" y="246" type="qcurve" smooth="yes"/>
      <point x="432" y="246"/>
      <point x="475" y="296"/>
      <point x="475" y="332" type="qcurve" smooth="yes"/>
      <point x="475" y="368"/>
      <point x="431" y="418"/>
      <point x="401" y="418" type="qcurve" smooth="yes"/>
      <point x="370" y="418"/>
      <point x="327" y="368"/>
      <point x="327" y="332" type="qcurve"/>
      <point x="327" y="296"/>
    </contour>
    <contour>
      <point x="7" y="-172" type="line"/>
      <point x="7" y="-113"/>
      <point x="87" y="-7"/>
      <point x="155" y="25" type="qcurve"/>
      <point x="113" y="99"/>
      <point x="69" y="261"/>
      <point x="69" y="344" type="qcurve" smooth="yes"/>
      <point x="69" y="532"/>
      <point x="328" y="799"/>
      <point x="511" y="799" type="qcurve" smooth="yes"/>
      <point x="674" y="799"/>
      <point x="905" y="554"/>
      <point x="905" y="381" type="qcurve" smooth="yes"/>
      <point x="905" y="0" type="line"/>
      <point x="843" y="0" type="line"/>
      <point x="843" y="381" type="line" smooth="yes"/>
      <point x="843" y="533"/>
      <point x="649" y="750"/>
      <point x="511" y="750" type="qcurve" smooth="yes"/>
      <point x="354" y="750"/>
      <point x="130" y="513"/>
      <point x="130" y="344" type="qcurve" smooth="yes"/>
      <point x="130" y="268"/>
      <point x="168" y="124"/>
      <point x="204" y="61" type="qcurve"/>
      <point x="257" y="92"/>
      <point x="393" y="123"/>
      <point x="475" y="123" type="qcurve" smooth="yes"/>
      <point x="508" y="123"/>
      <point x="577" y="111"/>
      <point x="610" y="98" type="qcurve"/>
      <point x="619" y="132"/>
      <point x="628" y="213"/>
      <point x="628" y="258" type="qcurve" smooth="yes"/>
      <point x="628" y="339"/>
      <point x="538" y="455"/>
      <point x="475" y="455" type="qcurve" smooth="yes"/>
      <point x="438" y="455" type="line"/>
      <point x="477" y="441"/>
      <point x="524" y="374"/>
      <point x="524" y="332" type="qcurve" smooth="yes"/>
      <point x="524" y="275"/>
      <point x="451" y="197"/>
      <point x="401" y="197" type="qcurve" smooth="yes"/>
      <point x="351" y="197"/>
      <point x="278" y="275"/>
      <point x="278" y="332" type="qcurve" smooth="yes"/>
      <point x="278" y="403"/>
      <point x="393" y="504"/>
      <point x="475" y="504" type="qcurve" smooth="yes"/>
      <point x="561" y="504"/>
      <point x="683" y="360"/>
      <point x="683" y="258" type="qcurve" smooth="yes"/>
      <point x="683" y="206"/>
      <point x="671" y="119"/>
      <point x="659" y="86" type="qcurve"/>
      <point x="736" y="58"/>
      <point x="831" y="-77"/>
      <point x="831" y="-160" type="qcurve" smooth="yes"/>
      <point x="831" y="-221"/>
      <point x="730" y="-307"/>
      <point x="659" y="-307" type="qcurve" smooth="yes"/>
      <point x="590" y="-307"/>
      <point x="462" y="-263"/>
      <point x="413" y="-221" type="qcurve"/>
      <point x="364" y="-263"/>
      <point x="224" y="-307"/>
      <point x="143" y="-307" type="qcurve" smooth="yes"/>
      <point x="86" y="-307"/>
      <point x="7" y="-229"/>
      <point x="7" y="-172" type="qcurve"/>
    </contour>
    <contour>
      <point x="112" y="-258"/>
      <point x="143" y="-258" type="qcurve" smooth="yes"/>
      <point x="201" y="-258"/>
      <point x="311" y="-224"/>
      <point x="358" y="-191" type="qcurve"/>
      <point x="295" y="-147"/>
      <point x="205" y="-57"/>
      <point x="179" y="-12" type="qcurve"/>
      <point x="129" y="-38"/>
      <point x="69" y="-124"/>
      <point x="69" y="-172" type="qcurve"/>
      <point x="69" y="-208"/>
    </contour>
    <contour>
      <point x="356" y="-122"/>
      <point x="413" y="-154" type="qcurve"/>
      <point x="477" y="-109"/>
      <point x="565" y="-5"/>
      <point x="585" y="49" type="qcurve"/>
      <point x="552" y="61"/>
      <point x="495" y="74"/>
      <point x="475" y="74" type="qcurve" smooth="yes"/>
      <point x="412" y="74"/>
      <point x="294" y="43"/>
      <point x="241" y="12" type="qcurve"/>
      <point x="269" y="-37"/>
    </contour>
    <contour>
      <point x="462" y="-191" type="line"/>
      <point x="520" y="-224"/>
      <point x="620" y="-258"/>
      <point x="659" y="-258" type="qcurve" smooth="yes"/>
      <point x="704" y="-258"/>
      <point x="770" y="-200"/>
      <point x="770" y="-160" type="qcurve" smooth="yes"/>
      <point x="770" y="-94"/>
      <point x="696" y="15"/>
      <point x="634" y="37" type="qcurve"/>
      <point x="608" y="-33"/>
      <point x="521" y="-150"/>
      <point x="462" y="-191" type="qcurve"/>
    </contour>
  </outline>
</glyph>
<glyph name="u0B88" format="1">
  <advance width="722"/>
  <unicode hex="0B88"/>
  <outline>
    <contour>
      <point x="396" y="506" type="move" name="Anchor-0"/>
    </contour>
    <contour>
      <point x="707" y="492" type="line"/>
      <point x="707" y="443" type="line"/>
      <point x="486" y="443" type="line"/>
      <point x="486" y="0" type="line"/>
      <point x="424" y="0" type="line"/>
      <point x="424" y="443" type="line"/>
      <point x="154" y="443" type="line"/>
      <point x="154" y="0" type="line"/>
      <point x="92" y="0" type="line"/>
      <point x="92" y="492" type="line"/>
    </contour>
    <contour>
      <point x="572" y="246" type="line"/>
      <point x="572" y="267"/>
      <point x="600" y="295"/>
      <point x="621" y="295" type="qcurve" smooth="yes"/>
      <point x="642" y="295"/>
      <point x="670" y="267"/>
      <point x="670" y="246" type="qcurve" smooth="yes"/>
      <point x="670" y="225"/>
      <point x="642" y="197"/>
      <point x="621" y="197" type="qcurve" smooth="yes"/>
      <point x="600" y="197"/>
      <point x="572" y="225"/>
      <point x="572" y="246" type="qcurve"/>
    </contour>
    <contour>
      <point x="240" y="246" type="line"/>
      <point x="240" y="267"/>
      <point x="268" y="295"/>
      <point x="289" y="295" type="qcurve" smooth="yes"/>
      <point x="310" y="295"/>
      <point x="338" y="267"/>
      <point x="338" y="246" type="qcurve" smooth="yes"/>
      <point x="338" y="225"/>
      <point x="310" y="197"/>
      <point x="289" y="197" type="qcurve" smooth="yes"/>
      <point x="268" y="197"/>
      <point x="240" y="225"/>
      <point x="240" y="246" type="qcurve"/>
    </contour>
  </outline>
</glyph>
<glyph name="u0B89" format="1">
  <advance width="929"/>
  <unicode hex="0B89"/>
  <outline>
    <contour>
      <point x="473" y="522" type="move" name="Anchor-0"/>
    </contour>
    <contour>
      <point x="144" y="283"/>
      <point x="170" y="283" type="qcurve" smooth="yes"/>
      <point x="196" y="283"/>
      <point x="231" y="318"/>
      <point x="231" y="344" type="qcurve" smooth="yes"/>
      <point x="231" y="375"/>
      <point x="195" y="418"/>
      <point x="170" y="418" type="qcurve" smooth="yes"/>
      <point x="144" y="418"/>
      <point x="108" y="375"/>
      <point x="108" y="344" type="qcurve"/>
      <point x="108" y="318"/>
    </contour>
    <contour>
      <point x="59" y="356" type="line"/>
      <point x="59" y="417"/>
      <point x="182" y="504"/>
      <point x="268" y="504" type="qcurve" smooth="yes"/>
      <point x="370" y="504"/>
      <point x="514" y="388"/>
      <point x="514" y="307" type="qcurve" smooth="yes"/>
      <point x="514" y="231"/>
      <point x="391" y="123"/>
      <point x="305" y="123" type="qcurve" smooth="yes"/>
      <point x="170" y="123" type="line" smooth="yes"/>
      <point x="149" y="123"/>
      <point x="120" y="101"/>
      <point x="120" y="86" type="qcurve" smooth="yes"/>
      <point x="120" y="71"/>
      <point x="149" y="49"/>
      <point x="170" y="49" type="qcurve" smooth="yes"/>
      <point x="920" y="49" type="line"/>
      <point x="920" y="0" type="line"/>
      <point x="170" y="0" type="line" smooth="yes"/>
      <point x="125" y="0"/>
      <point x="59" y="50"/>
      <point x="59" y="86" type="qcurve" smooth="yes"/>
      <point x="59" y="122"/>
      <point x="124" y="172"/>
      <point x="170" y="172" type="qcurve" smooth="yes"/>
      <point x="305" y="172" type="line" smooth="yes"/>
      <point x="366" y="172"/>
      <point x="452" y="251"/>
      <point x="452" y="307" type="qcurve" smooth="yes"/>
      <point x="452" y="368"/>
      <point x="344" y="455"/>
      <point x="268" y="455" type="qcurve" smooth="yes"/>
      <point x="194" y="455" type="line"/>
      <point x="233" y="441"/>
      <point x="280" y="380"/>
      <point x="280" y="344" type="qcurve" smooth="yes"/>
      <point x="280" y="299"/>
      <point x="215" y="234"/>
      <point x="170" y="234" type="qcurve" smooth="yes"/>
      <point x="125" y="234"/>
      <point x="59" y="306"/>
      <point x="59" y="356" type="qcurve"/>
    </contour>
  </outline>
</glyph>
<glyph name="u0B8A" format="1">
  <advance width="1289"/>
  <unicode hex="0B8A"/>
  <outline>
    <contour>
      <point x="637" y="515" type="move" name="Anchor-0"/>
    </contour>
    <contour>
      <point x="108" y="344" type="line"/>
      <point x="108" y="318"/>
      <point x="144" y="283"/>
      <point x="170" y="283" type="qcurve" smooth="yes"/>
      <point x="196" y="283"/>
      <point x="231" y="318"/>
      <point x="231" y="344" type="qcurve" smooth="yes"/>
      <point x="231" y="375"/>
      <point x="195" y="418"/>
      <point x="170" y="418" type="qcurve" smooth="yes"/>
      <point x="144" y="418"/>
      <point x="108" y="375"/>
      <point x="108" y="344" type="qcurve"/>
    </contour>
    <contour>
      <point x="661" y="209" type="line"/>
      <point x="661" y="183"/>
      <point x="704" y="148"/>
      <point x="735" y="148" type="qcurve" smooth="yes"/>
      <point x="761" y="148"/>
      <point x="797" y="183"/>
      <point x="797" y="209" type="qcurve" smooth="yes"/>
      <point x="797" y="235"/>
      <point x="761" y="270"/>
      <point x="735" y="270" type="qcurve" smooth="yes"/>
      <point x="704" y="270"/>
      <point x="661" y="235"/>
      <point x="661" y="209" type="qcurve"/>
    </contour>
    <contour>
      <point x="59" y="356" type="line"/>
      <point x="59" y="417"/>
      <point x="182" y="504"/>
      <point x="268" y="504" type="qcurve" smooth="yes"/>
      <point x="370" y="504"/>
      <point x="514" y="388"/>
      <point x="514" y="307" type="qcurve" smooth="yes"/>
      <point x="514" y="231"/>
      <point x="391" y="123"/>
      <point x="305" y="123" type="qcurve" smooth="yes"/>
      <point x="170" y="123" type="line" smooth="yes"/>
      <point x="149" y="123"/>
      <point x="120" y="101"/>
      <point x="120" y="86" type="qcurve" smooth="yes"/>
      <point x="120" y="71"/>
      <point x="149" y="49"/>
      <point x="170" y="49" type="qcurve" smooth="yes"/>
      <point x="1239" y="49" type="line"/>
      <point x="1239" y="0" type="line"/>
      <point x="170" y="0" type="line" smooth="yes"/>
      <point x="125" y="0"/>
      <point x="59" y="50"/>
      <point x="59" y="86" type="qcurve" smooth="yes"/>
      <point x="59" y="122"/>
      <point x="124" y="172"/>
      <point x="170" y="172" type="qcurve" smooth="yes"/>
      <point x="305" y="172" type="line" smooth="yes"/>
      <point x="366" y="172"/>
      <point x="452" y="251"/>
      <point x="452" y="307" type="qcurve" smooth="yes"/>
      <point x="452" y="368"/>
      <point x="344" y="455"/>
      <point x="268" y="455" type="qcurve" smooth="yes"/>
      <point x="194" y="455" type="line"/>
      <point x="233" y="441"/>
      <point x="280" y="380"/>
      <point x="280" y="344" type="qcurve" smooth="yes"/>
      <point x="280" y="299"/>
      <point x="215" y="234"/>
      <point x="170" y="234" type="qcurve" smooth="yes"/>
      <point x="125" y="234"/>
      <point x="59" y="306"/>
      <point x="59" y="356" type="qcurve"/>
    </contour>
    <contour>
      <point x="588" y="295" type="line"/>
      <point x="588" y="381"/>
      <point x="703" y="504"/>
      <point x="784" y="504" type="qcurve" smooth="yes"/>
      <point x="823" y="504"/>
      <point x="895" y="472"/>
      <point x="920" y="443" type="qcurve"/>
      <point x="920" y="492" type="line"/>
      <point x="1276" y="492" type="line"/>
      <point x="1276" y="443" type="line"/>
      <point x="1153" y="443" type="line"/>
      <point x="1153" y="98" type="line"/>
      <point x="1092" y="98" type="line"/>
      <point x="1092" y="443" type="line"/>
      <point x="981" y="443" type="line"/>
      <point x="981" y="98" type="line"/>
      <point x="920" y="98" type="line"/>
      <point x="920" y="295" type="line" smooth="yes"/>
      <point x="920" y="361"/>
      <point x="841" y="455"/>
      <point x="784" y="455" type="qcurve" smooth="yes"/>
      <point x="723" y="455"/>
      <point x="637" y="361"/>
      <point x="637" y="295" type="qcurve" smooth="yes"/>
      <point x="637" y="258" type="line"/>
      <point x="662" y="288"/>
      <point x="713" y="320"/>
      <point x="735" y="320" type="qcurve" smooth="yes"/>
      <point x="780" y="320"/>
      <point x="846" y="254"/>
      <point x="846" y="209" type="qcurve" smooth="yes"/>
      <point x="846" y="164"/>
      <point x="773" y="98"/>
      <point x="723" y="98" type="qcurve" smooth="yes"/>
      <point x="666" y="98"/>
      <point x="588" y="214"/>
      <point x="588" y="295" type="qcurve"/>
    </contour>
  </outline>
</glyph>
<glyph name="u0B8E" format="1">
  <advance width="799"/>
  <unicode hex="0B8E"/>
  <outline>
    <contour>
      <point x="435" y="506" type="move" name="Anchor-0"/>
    </contour>
    <contour>
      <point x="214" y="135" type="line"/>
      <point x="214" y="94"/>
      <point x="257" y="37"/>
      <point x="288" y="37" type="qcurve" smooth="yes"/>
      <point x="319" y="37"/>
      <point x="361" y="95"/>
      <point x="361" y="135" type="qcurve" smooth="yes"/>
      <point x="361" y="171"/>
      <point x="318" y="221"/>
      <point x="288" y="221" type="qcurve" smooth="yes"/>
      <point x="257" y="221"/>
      <point x="214" y="171"/>
      <point x="214" y="135" type="qcurve"/>
    </contour>
    <contour>
      <point x="558" y="443" type="line"/>
      <point x="312" y="443" type="line" smooth="yes"/>
      <point x="226" y="443"/>
      <point x="103" y="313"/>
      <point x="103" y="221" type="qcurve" smooth="yes"/>
      <point x="103" y="167"/>
      <point x="156" y="75"/>
      <point x="202" y="49" type="qcurve"/>
      <point x="184" y="70"/>
      <point x="165" y="114"/>
      <point x="165" y="135" type="qcurve" smooth="yes"/>
      <point x="165" y="192"/>
      <point x="237" y="270"/>
      <point x="288" y="270" type="qcurve" smooth="yes"/>
      <point x="345" y="270"/>
      <point x="423" y="192"/>
      <point x="423" y="135" type="qcurve" smooth="yes"/>
      <point x="423" y="74"/>
      <point x="329" y="-12"/>
      <point x="263" y="-12" type="qcurve" smooth="yes"/>
      <point x="177" y="-12"/>
      <point x="54" y="124"/>
      <point x="54" y="221" type="qcurve" smooth="yes"/>
      <point x="54" y="333"/>
      <point x="205" y="492"/>
      <point x="312" y="492" type="qcurve" smooth="yes"/>
      <point x="792" y="492" type="line"/>
      <point x="792" y="443" type="line"/>
      <point x="620" y="443" type="line"/>
      <point x="620" y="0" type="line"/>
      <point x="558" y="0" type="line"/>
      <point x="558" y="443" type="line"/>
    </contour>
  </outline>
</glyph>
<glyph name="u0B8F" format="1">
  <advance width="797"/>
  <unicode hex="0B8F"/>
  <outline>
    <contour>
      <point x="440" y="506" type="move" name="Anchor-0"/>
    </contour>
    <contour>
      <point x="213" y="135" type="line"/>
      <point x="213" y="94"/>
      <point x="256" y="37"/>
      <point x="286" y="37" type="qcurve" smooth="yes"/>
      <point x="317" y="37"/>
      <point x="360" y="95"/>
      <point x="360" y="135" type="qcurve" smooth="yes"/>
      <point x="360" y="171"/>
      <point x="317" y="221"/>
      <point x="286" y="221" type="qcurve" smooth="yes"/>
      <point x="255" y="221"/>
      <point x="213" y="171"/>
      <point x="213" y="135" type="qcurve"/>
    </contour>
    <contour>
      <point x="557" y="443" type="line"/>
      <point x="311" y="443" type="line" smooth="yes"/>
      <point x="225" y="443"/>
      <point x="102" y="313"/>
      <point x="102" y="221" type="qcurve" smooth="yes"/>
      <point x="102" y="173"/>
      <point x="154" y="81"/>
      <point x="200" y="49" type="qcurve"/>
      <point x="182" y="70"/>
      <point x="163" y="114"/>
      <point x="163" y="135" type="qcurve" smooth="yes"/>
      <point x="163" y="192"/>
      <point x="236" y="270"/>
      <point x="286" y="270" type="qcurve" smooth="yes"/>
      <point x="343" y="270"/>
      <point x="422" y="192"/>
      <point x="422" y="135" type="qcurve" smooth="yes"/>
      <point x="422" y="69"/>
      <point x="338" y="-12"/>
      <point x="268" y="-12" type="qcurve" smooth="yes"/>
      <point x="179" y="-12"/>
      <point x="53" y="124"/>
      <point x="53" y="221" type="qcurve" smooth="yes"/>
      <point x="53" y="333"/>
      <point x="204" y="492"/>
      <point x="311" y="492" type="qcurve" smooth="yes"/>
      <point x="790" y="492" type="line"/>
      <point x="790" y="443" type="line"/>
      <point x="618" y="443" type="line"/>
      <point x="618" y="0" type="line"/>
      <point x="555" y="-23"/>
      <point x="447" y="-118"/>
      <point x="409" y="-184" type="qcurve"/>
      <point x="354" y="-148" type="line"/>
      <point x="393" y="-80"/>
      <point x="498" y="15"/>
      <point x="557" y="37" type="qcurve"/>
      <point x="557" y="443" type="line"/>
    </contour>
  </outline>
</glyph>
<glyph name="u0B90" format="1">
  <advance width="822"/>
  <unicode hex="0B90"/>
  <outline>
    <contour>
      <point x="423" y="504" type="move" name="Anchor-0"/>
    </contour>
    <contour>
      <point x="41" y="-74" type="line"/>
      <point x="41" y="7"/>
      <point x="149" y="123"/>
      <point x="225" y="123" type="qcurve" smooth="yes"/>
      <point x="532" y="123" type="line" smooth="yes"/>
      <point x="608" y="123"/>
      <point x="717" y="216"/>
      <point x="717" y="283" type="qcurve" smooth="yes"/>
      <point x="717" y="354"/>
      <point x="644" y="455"/>
      <point x="594" y="455" type="qcurve" smooth="yes"/>
      <point x="537" y="455"/>
      <point x="459" y="382"/>
      <point x="459" y="332" type="qcurve" smooth="yes"/>
      <point x="459" y="172" type="line"/>
      <point x="397" y="172" type="line"/>
      <point x="397" y="332" type="line" smooth="yes"/>
      <point x="397" y="382"/>
      <point x="311" y="455"/>
      <point x="250" y="455" type="qcurve" smooth="yes"/>
      <point x="203" y="455"/>
      <point x="128" y="408"/>
      <point x="114" y="369" type="qcurve"/>
      <point x="131" y="384"/>
      <point x="177" y="400"/>
      <point x="200" y="400" type="qcurve" smooth="yes"/>
      <point x="245" y="400"/>
      <point x="311" y="338"/>
      <point x="311" y="295" type="qcurve" smooth="yes"/>
      <point x="311" y="245"/>
      <point x="238" y="172"/>
      <point x="188" y="172" type="qcurve" smooth="yes"/>
      <point x="131" y="172"/>
      <point x="53" y="251"/>
      <point x="53" y="307" type="qcurve" smooth="yes"/>
      <point x="53" y="388"/>
      <point x="168" y="504"/>
      <point x="250" y="504" type="qcurve" smooth="yes"/>
      <point x="308" y="504"/>
      <point x="403" y="455"/>
      <point x="428" y="412" type="qcurve"/>
      <point x="453" y="455"/>
      <point x="541" y="504"/>
      <point x="594" y="504" type="qcurve" smooth="yes"/>
      <point x="668" y="504"/>
      <point x="772" y="375"/>
      <point x="772" y="283" type="qcurve" smooth="yes"/>
      <point x="772" y="197"/>
      <point x="632" y="74"/>
      <point x="532" y="74" type="qcurve" smooth="yes"/>
      <point x="225" y="74" type="line" smooth="yes"/>
      <point x="175" y="74"/>
      <point x="102" y="-12"/>
      <point x="102" y="-74" type="qcurve" smooth="yes"/>
      <point x="102" y="-140"/>
      <point x="181" y="-234"/>
      <point x="237" y="-234" type="qcurve" smooth="yes"/>
      <point x="303" y="-234"/>
      <point x="397" y="-140"/>
      <point x="397" y="-74" type="qcurve" smooth="yes"/>
      <point x="397" y="12" type="line"/>
      <point x="459" y="12" type="line"/>
      <point x="459" y="-74" type="line" smooth="yes"/>
      <point x="459" y="-140"/>
      <point x="537" y="-234"/>
      <point x="594" y="-234" type="qcurve" smooth="yes"/>
      <point x="644" y="-234"/>
      <point x="717" y="-168"/>
      <point x="717" y="-123" type="qcurve" smooth="yes"/>
      <point x="717" y="-89"/>
      <point x="677" y="-26"/>
      <point x="643" y="-6" type="qcurve"/>
      <point x="668" y="43" type="line"/>
      <point x="715" y="26"/>
      <point x="772" y="-65"/>
      <point x="772" y="-123" type="qcurve" smooth="yes"/>
      <point x="772" y="-189"/>
      <point x="675" y="-283"/>
      <point x="606" y="-283" type="qcurve" smooth="yes"/>
      <point x="543" y="-283"/>
      <point x="445" y="-236"/>
      <point x="422" y="-197" type="qcurve"/>
      <point x="399" y="-236"/>
      <point x="300" y="-283"/>
      <point x="237" y="-283" type="qcurve" smooth="yes"/>
      <point x="156" y="-283"/>
      <point x="41" y="-160"/>
      <point x="41" y="-74" type="qcurve"/>
    </contour>
    <contour>
      <point x="102" y="295" type="line"/>
      <point x="102" y="264"/>
      <point x="152" y="221"/>
      <point x="188" y="221" type="qcurve" smooth="yes"/>
      <point x="219" y="221"/>
      <point x="262" y="264"/>
      <point x="262" y="295" type="qcurve" smooth="yes"/>
      <point x="262" y="321"/>
      <point x="219" y="356"/>
      <point x="188" y="356" type="qcurve" smooth="yes"/>
      <point x="152" y="356"/>
      <point x="102" y="321"/>
      <point x="102" y="295" type="qcurve"/>
    </contour>
  </outline>
</glyph>
<glyph name="u0B92" format="1">
  <advance width="858"/>
  <unicode hex="0B92"/>
  <outline>
    <contour>
      <point x="428" y="519" type="move" name="Anchor-0"/>
    </contour>
    <contour>
      <point x="49" y="184" type="line"/>
      <point x="49" y="322"/>
      <point x="266" y="516"/>
      <point x="418" y="516" type="qcurve" smooth="yes"/>
      <point x="581" y="516"/>
      <point x="811" y="322"/>
      <point x="811" y="184" type="qcurve" smooth="yes"/>
      <point x="811" y="123"/>
      <point x="725" y="37"/>
      <point x="664" y="37" type="qcurve" smooth="yes"/>
      <point x="607" y="37"/>
      <point x="529" y="109"/>
      <point x="529" y="160" type="qcurve" smooth="yes"/>
      <point x="529" y="170"/>
      <point x="545" y="208"/>
      <point x="559" y="234" type="qcurve"/>
      <point x="522" y="213"/>
      <point x="479" y="146"/>
      <point x="479" y="111" type="qcurve" smooth="yes"/>
      <point x="479" y="54"/>
      <point x="580" y="-25"/>
      <point x="652" y="-25" type="qcurve" smooth="yes"/>
      <point x="787" y="-25" type="line"/>
      <point x="787" y="-74" type="line"/>
      <point x="602" y="-74" type="line" smooth="yes"/>
      <point x="576" y="-74"/>
      <point x="527" y="-129"/>
      <point x="516" y="-172" type="qcurve" smooth="yes"/>
      <point x="500" y="-232"/>
      <point x="397" y="-307"/>
      <point x="332" y="-307" type="qcurve" smooth="yes"/>
      <point x="266" y="-307"/>
      <point x="172" y="-229"/>
      <point x="172" y="-172" type="qcurve" smooth="yes"/>
      <point x="172" y="-122"/>
      <point x="237" y="-49"/>
      <point x="283" y="-49" type="qcurve"/>
      <point x="283" y="-98" type="line"/>
      <point x="257" y="-98"/>
      <point x="221" y="-141"/>
      <point x="221" y="-172" type="qcurve" smooth="yes"/>
      <point x="221" y="-208"/>
      <point x="286" y="-258"/>
      <point x="332" y="-258" type="qcurve" smooth="yes"/>
      <point x="376" y="-258"/>
      <point x="445" y="-210"/>
      <point x="455" y="-172" type="qcurve" smooth="yes"/>
      <point x="467" y="-127"/>
      <point x="519" y="-61"/>
      <point x="553" y="-49" type="qcurve"/>
      <point x="498" y="-29"/>
      <point x="430" y="59"/>
      <point x="430" y="111" type="qcurve" smooth="yes"/>
      <point x="430" y="182"/>
      <point x="546" y="283"/>
      <point x="627" y="283" type="qcurve"/>
      <point x="604" y="255"/>
      <point x="578" y="191"/>
      <point x="578" y="160" type="qcurve" smooth="yes"/>
      <point x="578" y="129"/>
      <point x="628" y="86"/>
      <point x="664" y="86" type="qcurve" smooth="yes"/>
      <point x="700" y="86"/>
      <point x="750" y="144"/>
      <point x="750" y="184" type="qcurve" smooth="yes"/>
      <point x="750" y="301"/>
      <point x="556" y="467"/>
      <point x="418" y="467" type="qcurve" smooth="yes"/>
      <point x="288" y="467"/>
      <point x="104" y="301"/>
      <point x="104" y="184" type="qcurve" smooth="yes"/>
      <point x="104" y="177"/>
      <point x="112" y="152"/>
      <point x="123" y="123" type="qcurve"/>
      <point x="123" y="187"/>
      <point x="188" y="277"/>
      <point x="234" y="277" type="qcurve" smooth="yes"/>
      <point x="284" y="277"/>
      <point x="356" y="200"/>
      <point x="356" y="148" type="qcurve" smooth="yes"/>
      <point x="356" y="91"/>
      <point x="284" y="12"/>
      <point x="234" y="12" type="qcurve" smooth="yes"/>
      <point x="158" y="12"/>
      <point x="49" y="113"/>
      <point x="49" y="184" type="qcurve"/>
    </contour>
    <contour>
      <point x="172" y="148" type="line"/>
      <point x="172" y="112"/>
      <point x="208" y="61"/>
      <point x="234" y="61" type="qcurve" smooth="yes"/>
      <point x="260" y="61"/>
      <point x="295" y="112"/>
      <point x="295" y="148" type="qcurve" smooth="yes"/>
      <point x="295" y="179"/>
      <point x="259" y="221"/>
      <point x="234" y="221" type="qcurve" smooth="yes"/>
      <point x="208" y="221"/>
      <point x="172" y="178"/>
      <point x="172" y="148" type="qcurve"/>
    </contour>
  </outline>
</glyph>
<glyph name="u0B93" format="1">
  <advance width="859"/>
  <unicode hex="0B93"/>
  <outline>
    <contour>
      <point x="418" y="529" type="move" name="Anchor-0"/>
    </contour>
    <contour>
      <point x="50" y="209" type="line"/>
      <point x="50" y="337"/>
      <point x="267" y="516"/>
      <point x="419" y="516" type="qcurve" smooth="yes"/>
      <point x="582" y="516"/>
      <point x="813" y="322"/>
      <point x="813" y="184" type="qcurve" smooth="yes"/>
      <point x="813" y="123"/>
      <point x="727" y="37"/>
      <point x="665" y="37" type="qcurve" smooth="yes"/>
      <point x="608" y="37"/>
      <point x="530" y="109"/>
      <point x="530" y="160" type="qcurve" smooth="yes"/>
      <point x="530" y="170"/>
      <point x="546" y="208"/>
      <point x="561" y="234" type="qcurve"/>
      <point x="524" y="213"/>
      <point x="481" y="146"/>
      <point x="481" y="111" type="qcurve" smooth="yes"/>
      <point x="481" y="54"/>
      <point x="581" y="-25"/>
      <point x="653" y="-25" type="qcurve" smooth="yes"/>
      <point x="788" y="-25" type="line"/>
      <point x="788" y="-74" type="line"/>
      <point x="604" y="-74" type="line" smooth="yes"/>
      <point x="578" y="-74"/>
      <point x="529" y="-129"/>
      <point x="518" y="-172" type="qcurve" smooth="yes"/>
      <point x="502" y="-232"/>
      <point x="412" y="-307"/>
      <point x="358" y="-307" type="qcurve" smooth="yes"/>
      <point x="282" y="-307"/>
      <point x="173" y="-229"/>
      <point x="173" y="-172" type="qcurve" smooth="yes"/>
      <point x="173" y="-122"/>
      <point x="238" y="-49"/>
      <point x="284" y="-49" type="qcurve" smooth="yes"/>
      <point x="325" y="-49"/>
      <point x="382" y="-107"/>
      <point x="382" y="-148" type="qcurve" smooth="yes"/>
      <point x="382" y="-189"/>
      <point x="332" y="-246"/>
      <point x="296" y="-246" type="qcurve"/>
      <point x="313" y="-252"/>
      <point x="344" y="-258"/>
      <point x="358" y="-258" type="qcurve" smooth="yes"/>
      <point x="391" y="-258"/>
      <point x="446" y="-210"/>
      <point x="456" y="-172" type="qcurve" smooth="yes"/>
      <point x="468" y="-127"/>
      <point x="520" y="-61"/>
      <point x="554" y="-49" type="qcurve"/>
      <point x="499" y="-29"/>
      <point x="431" y="59"/>
      <point x="431" y="111" type="qcurve" smooth="yes"/>
      <point x="431" y="182"/>
      <point x="547" y="283"/>
      <point x="628" y="283" type="qcurve"/>
      <point x="605" y="255"/>
      <point x="579" y="191"/>
      <point x="579" y="160" type="qcurve" smooth="yes"/>
      <point x="579" y="129"/>
      <point x="629" y="86"/>
      <point x="665" y="86" type="qcurve" smooth="yes"/>
      <point x="701" y="86"/>
      <point x="751" y="144"/>
      <point x="751" y="184" type="qcurve" smooth="yes"/>
      <point x="751" y="301"/>
      <point x="557" y="467"/>
      <point x="419" y="467" type="qcurve" smooth="yes"/>
      <point x="286" y="467"/>
      <point x="100" y="316"/>
      <point x="100" y="209" type="qcurve" smooth="yes"/>
      <point x="100" y="189"/>
      <point x="106" y="152"/>
      <point x="112" y="135" type="qcurve"/>
      <point x="112" y="194"/>
      <point x="184" y="277"/>
      <point x="235" y="277" type="qcurve" smooth="yes"/>
      <point x="285" y="277"/>
      <point x="358" y="200"/>
      <point x="358" y="148" type="qcurve" smooth="yes"/>
      <point x="358" y="91"/>
      <point x="285" y="12"/>
      <point x="235" y="12" type="qcurve" smooth="yes"/>
      <point x="159" y="12"/>
      <point x="50" y="128"/>
      <point x="50" y="209" type="qcurve"/>
    </contour>
    <contour>
      <point x="173" y="148" type="line"/>
      <point x="173" y="112"/>
      <point x="209" y="61"/>
      <point x="235" y="61" type="qcurve" smooth="yes"/>
      <point x="261" y="61"/>
      <point x="296" y="112"/>
      <point x="296" y="148" type="qcurve" smooth="yes"/>
      <point x="296" y="179"/>
      <point x="261" y="221"/>
      <point x="235" y="221" type="qcurve" smooth="yes"/>
      <point x="209" y="221"/>
      <point x="173" y="178"/>
      <point x="173" y="148" type="qcurve"/>
    </contour>
    <contour>
      <point x="223" y="-172" type="line"/>
      <point x="223" y="-187"/>
      <point x="258" y="-209"/>
      <point x="284" y="-209" type="qcurve" smooth="yes"/>
      <point x="305" y="-209"/>
      <point x="333" y="-173"/>
      <point x="333" y="-148" type="qcurve" smooth="yes"/>
      <point x="333" y="-127"/>
      <point x="305" y="-98"/>
      <point x="284" y="-98" type="qcurve" smooth="yes"/>
      <point x="258" y="-98"/>
      <point x="223" y="-141"/>
      <point x="223" y="-172" type="qcurve"/>
    </contour>
  </outline>
</glyph>
<glyph name="u0B9A" format="1">
  <advance width="567"/>
  <unicode hex="0B9A"/>
  <outline>
    <contour>
      <point x="300" y="495" type="move" name="Anchor-0"/>
    </contour>
    <contour>
      <point x="219" y="270" type="line"/>
      <point x="342" y="270" type="line"/>
      <point x="342" y="443" type="line"/>
      <point x="219" y="443" type="line"/>
      <point x="219" y="270" type="line"/>
    </contour>
    <contour>
      <point x="96" y="160" type="line"/>
      <point x="96" y="110"/>
      <point x="175" y="37"/>
      <point x="231" y="37" type="qcurve" smooth="yes"/>
      <point x="276" y="37"/>
      <point x="342" y="95"/>
      <point x="342" y="135" type="qcurve" smooth="yes"/>
      <point x="342" y="221" type="line"/>
      <point x="157" y="221" type="line" smooth="yes"/>
      <point x="131" y="221"/>
      <point x="96" y="186"/>
      <point x="96" y="160" type="qcurve"/>
    </contour>
    <contour>
      <point x="157" y="492" type="line"/>
      <point x="551" y="492" type="line"/>
      <point x="551" y="443" type="line"/>
      <point x="403" y="443" type="line"/>
      <point x="403" y="270" type="line"/>
      <point x="551" y="270" type="line"/>
      <point x="551" y="221" type="line"/>
      <point x="403" y="221" type="line"/>
      <point x="403" y="135" type="line" smooth="yes"/>
      <point x="403" y="74"/>
      <point x="302" y="-12"/>
      <point x="231" y="-12" type="qcurve" smooth="yes"/>
      <point x="150" y="-12"/>
      <point x="34" y="89"/>
      <point x="34" y="160" type="qcurve" smooth="yes"/>
      <point x="34" y="205"/>
      <point x="107" y="270"/>
      <point x="157" y="270" type="qcurve"/>
      <point x="157" y="492" type="line"/>
    </contour>
  </outline>
</glyph>
<glyph name="u0B9F" format="1">
  <advance width="815"/>
  <unicode hex="0B9F"/>
  <outline>
    <contour>
      <point x="423" y="502" type="move" name="Anchor-0"/>
    </contour>
    <contour>
      <point x="92" y="0" type="line"/>
      <point x="92" y="492" type="line"/>
      <point x="154" y="492" type="line"/>
      <point x="154" y="49" type="line"/>
      <point x="805" y="49" type="line"/>
      <point x="805" y="0" type="line"/>
      <point x="92" y="0" type="line"/>
    </contour>
  </outline>
</glyph>
<glyph name="u0BAA" format="1">
  <advance width="762"/>
  <unicode hex="0BAA"/>
  <outline>
    <contour>
      <point x="374" y="494" type="move" name="Anchor-0"/>
    </contour>
    <contour>
      <point x="608" y="49" type="line"/>
      <point x="608" y="492" type="line"/>
      <point x="670" y="492" type="line"/>
      <point x="670" y="0" type="line"/>
      <point x="92" y="0" type="line"/>
      <point x="92" y="492" type="line"/>
      <point x="154" y="492" type="line"/>
      <point x="154" y="49" type="line"/>
      <point x="608" y="49" type="line"/>
    </contour>
  </outline>
</glyph>
<glyph name="u0BAE" format="1">
  <advance width="824"/>
  <unicode hex="0BAE"/>
  <outline>
    <contour>
      <point x="435" y="511" type="move" name="Anchor-0"/>
    </contour>
    <contour>
      <point x="449" y="369" type="line"/>
      <point x="449" y="49" type="line"/>
      <point x="621" y="49" type="line" smooth="yes"/>
      <point x="657" y="49"/>
      <point x="707" y="128"/>
      <point x="707" y="184" type="qcurve" smooth="yes"/>
      <point x="707" y="296"/>
      <point x="599" y="455"/>
      <point x="522" y="455" type="qcurve" smooth="yes"/>
      <point x="491" y="455"/>
      <point x="449" y="404"/>
      <point x="449" y="369" type="qcurve"/>
    </contour>
    <contour>
      <point x="522" y="504" type="line"/>
      <point x="624" y="504"/>
      <point x="768" y="317"/>
      <point x="768" y="184" type="qcurve" smooth="yes"/>
      <point x="768" y="108"/>
      <point x="682" y="0"/>
      <point x="621" y="0" type="qcurve" smooth="yes"/>
      <point x="92" y="0" type="line"/>
      <point x="92" y="492" type="line"/>
      <point x="154" y="492" type="line"/>
      <point x="154" y="49" type="line"/>
      <point x="387" y="49" type="line"/>
      <point x="387" y="369" type="line" smooth="yes"/>
      <point x="387" y="426"/>
      <point x="466" y="504"/>
      <point x="522" y="504" type="qcurve"/>
    </contour>
  </outline>
</glyph>
<glyph name="u0BAF" format="1">
  <advance width="878"/>
  <unicode hex="0BAF"/>
  <outline>
    <contour>
      <point x="424" y="488" type="move" name="Anchor-0"/>
    </contour>
    <contour>
      <point x="725" y="49" type="line"/>
      <point x="725" y="492" type="line"/>
      <point x="787" y="492" type="line"/>
      <point x="787" y="0" type="line"/>
      <point x="307" y="0" type="line"/>
      <point x="307" y="31" type="line"/>
      <point x="290" y="10"/>
      <point x="238" y="-12"/>
      <point x="209" y="-12" type="qcurve" smooth="yes"/>
      <point x="159" y="-12"/>
      <point x="86" y="74"/>
      <point x="86" y="135" type="qcurve" smooth="yes"/>
      <point x="86" y="492" type="line"/>
      <point x="148" y="492" type="line"/>
      <point x="148" y="135" type="line" smooth="yes"/>
      <point x="148" y="94"/>
      <point x="183" y="37"/>
      <point x="209" y="37" type="qcurve" smooth="yes"/>
      <point x="250" y="37"/>
      <point x="307" y="102"/>
      <point x="307" y="148" type="qcurve" smooth="yes"/>
      <point x="307" y="492" type="line"/>
      <point x="369" y="492" type="line"/>
      <point x="369" y="49" type="line"/>
      <point x="725" y="49" type="line"/>
    </contour>
  </outline>
</glyph>
<glyph name="u0BB0" format="1">
  <advance width="529"/>
  <unicode hex="0BB0"/>
  <outline>
    <contour>
      <point x="310" y="495" type="move" name="Anchor-0"/>
    </contour>
    <contour>
      <point x="92" y="492" type="line"/>
      <point x="522" y="492" type="line"/>
      <point x="522" y="443" type="line"/>
      <point x="387" y="443" type="line"/>
      <point x="387" y="0" type="line"/>
      <point x="328" y="-21"/>
      <point x="246" y="-127"/>
      <point x="234" y="-197" type="qcurve"/>
      <point x="178" y="-184" type="line"/>
      <point x="190" y="-115"/>
      <point x="268" y="-2"/>
      <point x="326" y="31" type="qcurve"/>
      <point x="326" y="443" type="line"/>
      <point x="154" y="443" type="line"/>
      <point x="154" y="0" type="line"/>
      <point x="92" y="0" type="line"/>
      <point x="92" y="492" type="line"/>
    </contour>
  </outline>
</glyph>
<glyph name="u0BB4" format="1">
  <advance width="824"/>
  <unicode hex="0BB4"/>
  <outline>
    <contour>
      <point x="430" y="511" type="move" name="Anchor-0"/>
    </contour>
    <contour>
      <point x="449" y="369" type="line"/>
      <point x="449" y="49" type="line"/>
      <point x="621" y="49" type="line" smooth="yes"/>
      <point x="657" y="49"/>
      <point x="707" y="128"/>
      <point x="707" y="184" type="qcurve" smooth="yes"/>
      <point x="707" y="296"/>
      <point x="599" y="455"/>
      <point x="522" y="455" type="qcurve" smooth="yes"/>
      <point x="491" y="455"/>
      <point x="449" y="404"/>
      <point x="449" y="369" type="qcurve"/>
    </contour>
    <contour>
      <point x="522" y="504" type="line"/>
      <point x="624" y="504"/>
      <point x="768" y="317"/>
      <point x="768" y="184" type="qcurve" smooth="yes"/>
      <point x="768" y="108"/>
      <point x="682" y="0"/>
      <point x="621" y="0" type="qcurve" smooth="yes"/>
      <point x="449" y="0" type="line"/>
      <point x="456" y="-43"/>
      <point x="519" y="-98"/>
      <point x="559" y="-98" type="qcurve" smooth="yes"/>
      <point x="707" y="-98" type="line"/>
      <point x="707" y="-148" type="line"/>
      <point x="608" y="-148" type="line" smooth="yes"/>
      <point x="563" y="-148"/>
      <point x="484" y="-194"/>
      <point x="461" y="-234" type="qcurve" smooth="yes"/>
      <point x="431" y="-286"/>
      <point x="332" y="-344"/>
      <point x="277" y="-344" type="qcurve" smooth="yes"/>
      <point x="201" y="-344"/>
      <point x="92" y="-258"/>
      <point x="92" y="-197" type="qcurve" smooth="yes"/>
      <point x="92" y="-147"/>
      <point x="165" y="-74"/>
      <point x="215" y="-74" type="qcurve" smooth="yes"/>
      <point x="313" y="-74" type="line"/>
      <point x="313" y="-123" type="line"/>
      <point x="215" y="-123" type="line" smooth="yes"/>
      <point x="189" y="-123"/>
      <point x="154" y="-166"/>
      <point x="154" y="-197" type="qcurve" smooth="yes"/>
      <point x="154" y="-238"/>
      <point x="226" y="-295"/>
      <point x="277" y="-295" type="qcurve" smooth="yes"/>
      <point x="311" y="-295"/>
      <point x="371" y="-262"/>
      <point x="387" y="-234" type="qcurve" smooth="yes"/>
      <point x="404" y="-203"/>
      <point x="455" y="-152"/>
      <point x="486" y="-135" type="qcurve"/>
      <point x="442" y="-119"/>
      <point x="387" y="-44"/>
      <point x="387" y="0" type="qcurve"/>
      <point x="92" y="0" type="line"/>
      <point x="92" y="492" type="line"/>
      <point x="154" y="492" type="line"/>
      <point x="154" y="49" type="line"/>
      <point x="387" y="49" type="line"/>
      <point x="387" y="369" type="line" smooth="yes"/>
      <point x="387" y="426"/>
      <point x="466" y="504"/>
      <point x="522" y="504" type="qcurve"/>
    </contour>
  </outline>
</glyph>
<glyph name="u0BB6" format="1">
  <advance width="1051"/>
  <unicode hex="0BB6"/>
  <outline>
    <contour>
      <point x="516" y="498" type="move" name="Anchor-0"/>
    </contour>
    <contour>
      <point x="691" y="443" type="line"/>
      <point x="691" y="128" type="line" smooth="yes"/>
      <point x="691" y="49"/>
      <point x="895" y="49"/>
      <point x="895" y="128" type="qcurve" smooth="yes"/>
      <point x="895" y="443" type="line"/>
    </contour>
    <contour>
      <point x="361" y="492" type="line"/>
      <point x="959" y="492" type="line"/>
      <point x="959" y="128" type="line" smooth="yes"/>
      <point x="959" y="0"/>
      <point x="787" y="0" type="qcurve" smooth="yes"/>
      <point x="627" y="0"/>
      <point x="627" y="128" type="qcurve" smooth="yes"/>
      <point x="627" y="443" type="line"/>
      <point x="424" y="443" type="line"/>
      <point x="424" y="155" type="line" smooth="yes"/>
      <point x="424" y="0"/>
      <point x="229" y="0" type="qcurve" smooth="yes"/>
      <point x="94" y="0"/>
      <point x="93" y="125" type="qcurve" smooth="yes"/>
      <point x="93" y="492" type="line"/>
      <point x="157" y="492" type="line"/>
      <point x="157" y="138" type="line" smooth="yes"/>
      <point x="157" y="49"/>
      <point x="242" y="49" type="qcurve" smooth="yes"/>
      <point x="361" y="48"/>
      <point x="361" y="152" type="qcurve" smooth="yes"/>
    </contour>
  </outline>
</glyph>
<glyph name="u0BBE" format="1">
  <advance width="535"/>
  <unicode hex="0BBE"/>
  <outline>
    <contour>
      <point x="92" y="492" type="line"/>
      <point x="529" y="492" type="line"/>
      <point x="529" y="443" type="line"/>
      <point x="387" y="443" type="line"/>
      <point x="387" y="0" type="line"/>
      <point x="326" y="0" type="line"/>
      <point x="326" y="443" type="line"/>
      <point x="154" y="443" type="line"/>
      <point x="154" y="0" type="line"/>
      <point x="92" y="0" type="line"/>
      <point x="92" y="492" type="line"/>
    </contour>
  </outline>
</glyph>
<glyph name="u0BBF" format="1">
  <advance width="663"/>
  <unicode hex="0BBF"/>
  <outline>
    <contour>
      <point x="92" y="602" type="line"/>
      <point x="92" y="688"/>
      <point x="236" y="811"/>
      <point x="338" y="811" type="qcurve" smooth="yes"/>
      <point x="435" y="811"/>
      <point x="572" y="696"/>
      <point x="572" y="615" type="qcurve" smooth="yes"/>
      <point x="572" y="0" type="line"/>
      <point x="510" y="0" type="line"/>
      <point x="510" y="615" type="line" smooth="yes"/>
      <point x="510" y="676"/>
      <point x="409" y="762"/>
      <point x="338" y="762" type="qcurve" smooth="yes"/>
      <point x="262" y="762"/>
      <point x="154" y="669"/>
      <point x="154" y="602" type="qcurve" smooth="yes"/>
      <point x="154" y="576"/>
      <point x="179" y="520"/>
      <point x="203" y="492" type="qcurve"/>
      <point x="129" y="492" type="line"/>
      <point x="111" y="524"/>
      <point x="92" y="579"/>
      <point x="92" y="602" type="qcurve"/>
    </contour>
  </outline>
</glyph>
<glyph name="u0BC7" format="1">
  <advance width="727"/>
  <unicode hex="0BC7"/>
  <outline>
    <contour>
      <point x="50" y="406" type="line"/>
      <point x="50" y="569"/>
      <point x="267" y="799"/>
      <point x="419" y="799" type="qcurve" smooth="yes"/>
      <point x="531" y="799"/>
      <point x="690" y="691"/>
      <point x="690" y="615" type="qcurve" smooth="yes"/>
      <point x="690" y="558"/>
      <point x="611" y="479"/>
      <point x="554" y="479" type="qcurve" smooth="yes"/>
      <point x="497" y="479"/>
      <point x="419" y="558"/>
      <point x="419" y="615" type="qcurve" smooth="yes"/>
      <point x="419" y="659"/>
      <point x="473" y="734"/>
      <point x="518" y="750" type="qcurve"/>
      <point x="501" y="756"/>
      <point x="451" y="762"/>
      <point x="419" y="762" type="qcurve" smooth="yes"/>
      <point x="291" y="762"/>
      <point x="112" y="553"/>
      <point x="112" y="406" type="qcurve" smooth="yes"/>
      <point x="112" y="254"/>
      <point x="291" y="37"/>
      <point x="419" y="37" type="qcurve" smooth="yes"/>
      <point x="451" y="37"/>
      <point x="500" y="43"/>
      <point x="518" y="49" type="qcurve"/>
      <point x="474" y="65"/>
      <point x="419" y="140"/>
      <point x="419" y="184" type="qcurve" smooth="yes"/>
      <point x="419" y="241"/>
      <point x="498" y="320"/>
      <point x="554" y="320" type="qcurve" smooth="yes"/>
      <point x="611" y="320"/>
      <point x="690" y="241"/>
      <point x="690" y="184" type="qcurve" smooth="yes"/>
      <point x="690" y="103"/>
      <point x="531" y="-12"/>
      <point x="419" y="-12" type="qcurve" smooth="yes"/>
      <point x="267" y="-12"/>
      <point x="50" y="232"/>
      <point x="50" y="406" type="qcurve"/>
    </contour>
    <contour>
      <point x="468" y="615" type="line"/>
      <point x="468" y="579"/>
      <point x="519" y="529"/>
      <point x="554" y="529" type="qcurve" smooth="yes"/>
      <point x="590" y="529"/>
      <point x="640" y="579"/>
      <point x="640" y="615" type="qcurve" smooth="yes"/>
      <point x="640" y="656"/>
      <point x="590" y="713"/>
      <point x="554" y="713" type="qcurve" smooth="yes"/>
      <point x="518" y="713"/>
      <point x="468" y="655"/>
      <point x="468" y="615" type="qcurve"/>
    </contour>
    <contour>
      <point x="468" y="184" type="line"/>
      <point x="468" y="143"/>
      <point x="519" y="86"/>
      <point x="554" y="86" type="qcurve" smooth="yes"/>
      <point x="590" y="86"/>
      <point x="640" y="144"/>
      <point x="640" y="184" type="qcurve" smooth="yes"/>
      <point x="640" y="220"/>
      <point x="590" y="270"/>
      <point x="554" y="270" type="qcurve" smooth="yes"/>
      <point x="518" y="270"/>
      <point x="468" y="220"/>
      <point x="468" y="184" type="qcurve"/>
    </contour>
  </outline>
</glyph>
<glyph name="u0BC8" format="1">
  <advance width="969"/>
  <unicode hex="0BC8"/>
  <outline>
    <contour>
      <point x="188" y="135" type="line"/>
      <point x="188" y="94"/>
      <point x="231" y="37"/>
      <point x="262" y="37" type="qcurve" smooth="yes"/>
      <point x="298" y="37"/>
      <point x="348" y="95"/>
      <point x="348" y="135" type="qcurve" smooth="yes"/>
      <point x="348" y="171"/>
      <point x="305" y="221"/>
      <point x="274" y="221" type="qcurve" smooth="yes"/>
      <point x="238" y="221"/>
      <point x="188" y="171"/>
      <point x="188" y="135" type="qcurve"/>
    </contour>
    <contour>
      <point x="502" y="197" type="line"/>
      <point x="502" y="131"/>
      <point x="534" y="37"/>
      <point x="557" y="37" type="qcurve" smooth="yes"/>
      <point x="580" y="37"/>
      <point x="612" y="130"/>
      <point x="612" y="197" type="qcurve" smooth="yes"/>
      <point x="612" y="242"/>
      <point x="584" y="325"/>
      <point x="557" y="356" type="qcurve"/>
      <point x="530" y="309"/>
      <point x="502" y="229"/>
      <point x="502" y="197" type="qcurve"/>
    </contour>
    <contour>
      <point x="53" y="197" type="line"/>
      <point x="53" y="325"/>
      <point x="232" y="504"/>
      <point x="360" y="504" type="qcurve" smooth="yes"/>
      <point x="418" y="504"/>
      <point x="515" y="466"/>
      <point x="545" y="430" type="qcurve"/>
      <point x="575" y="466"/>
      <point x="658" y="504"/>
      <point x="704" y="504" type="qcurve" smooth="yes"/>
      <point x="790" y="504"/>
      <point x="913" y="353"/>
      <point x="913" y="246" type="qcurve" smooth="yes"/>
      <point x="913" y="177"/>
      <point x="842" y="42"/>
      <point x="778" y="-12" type="qcurve"/>
      <point x="741" y="37" type="line"/>
      <point x="793" y="67"/>
      <point x="852" y="178"/>
      <point x="852" y="246" type="qcurve" smooth="yes"/>
      <point x="852" y="332"/>
      <point x="766" y="455"/>
      <point x="704" y="455" type="qcurve" smooth="yes"/>
      <point x="679" y="455"/>
      <point x="617" y="423"/>
      <point x="581" y="393" type="qcurve"/>
      <point x="622" y="359"/>
      <point x="668" y="256"/>
      <point x="668" y="197" type="qcurve" smooth="yes"/>
      <point x="668" y="111"/>
      <point x="602" y="-12"/>
      <point x="557" y="-12" type="qcurve" smooth="yes"/>
      <point x="512" y="-12"/>
      <point x="446" y="111"/>
      <point x="446" y="197" type="qcurve" smooth="yes"/>
      <point x="446" y="250"/>
      <point x="484" y="350"/>
      <point x="520" y="393" type="qcurve"/>
      <point x="484" y="423"/>
      <point x="402" y="455"/>
      <point x="360" y="455" type="qcurve" smooth="yes"/>
      <point x="253" y="455"/>
      <point x="102" y="304"/>
      <point x="102" y="197" type="qcurve" smooth="yes"/>
      <point x="102" y="163"/>
      <point x="134" y="98"/>
      <point x="163" y="74" type="qcurve"/>
      <point x="154" y="90"/>
      <point x="145" y="120"/>
      <point x="145" y="135" type="qcurve" smooth="yes"/>
      <point x="145" y="192"/>
      <point x="221" y="270"/>
      <point x="274" y="270" type="qcurve" smooth="yes"/>
      <point x="324" y="270"/>
      <point x="397" y="192"/>
      <point x="397" y="135" type="qcurve" smooth="yes"/>
      <point x="397" y="74"/>
      <point x="318" y="-12"/>
      <point x="262" y="-12" type="qcurve" smooth="yes"/>
      <point x="176" y="-12"/>
      <point x="53" y="111"/>
      <point x="53" y="197" type="qcurve"/>
    </contour>
  </outline>
</glyph>
<glyph name="u0BCA" format="1">
  <advance width="1284"/>
  <unicode hex="0BCA"/>
  <outline>
    <contour>
      <point x="325" y="154" type="line"/>
      <point x="325" y="106"/>
      <point x="382" y="37"/>
      <point x="423" y="37" type="qcurve" smooth="yes"/>
      <point x="464" y="37"/>
      <point x="521" y="106"/>
      <point x="521" y="154" type="qcurve" smooth="yes"/>
      <point x="521" y="202"/>
      <point x="463" y="270"/>
      <point x="423" y="270" type="qcurve" smooth="yes"/>
      <point x="382" y="270"/>
      <point x="325" y="202"/>
      <point x="325" y="154" type="qcurve"/>
    </contour>
    <contour>
      <point x="54" y="381" type="line"/>
      <point x="54" y="559"/>
      <point x="278" y="811"/>
      <point x="435" y="811" type="qcurve" smooth="yes"/>
      <point x="547" y="811"/>
      <point x="706" y="660"/>
      <point x="706" y="553" type="qcurve" smooth="yes"/>
      <point x="706" y="0" type="line"/>
      <point x="644" y="0" type="line"/>
      <point x="644" y="553" type="line" smooth="yes"/>
      <point x="644" y="639"/>
      <point x="521" y="762"/>
      <point x="435" y="762" type="qcurve" smooth="yes"/>
      <point x="300" y="762"/>
      <point x="109" y="538"/>
      <point x="109" y="381" type="qcurve" smooth="yes"/>
      <point x="109" y="254"/>
      <point x="221" y="70"/>
      <point x="306" y="55" type="qcurve"/>
      <point x="288" y="76"/>
      <point x="269" y="130"/>
      <point x="269" y="160" type="qcurve" smooth="yes"/>
      <point x="269" y="226"/>
      <point x="359" y="320"/>
      <point x="423" y="320" type="qcurve" smooth="yes"/>
      <point x="487" y="320"/>
      <point x="577" y="226"/>
      <point x="577" y="160" type="qcurve" smooth="yes"/>
      <point x="577" y="75"/>
      <point x="483" y="-12"/>
      <point x="392" y="-12" type="qcurve" smooth="yes"/>
      <point x="252" y="-12"/>
      <point x="54" y="218"/>
      <point x="54" y="381" type="qcurve"/>
    </contour>
    <contour>
      <point x="841" y="492" type="line"/>
      <point x="1277" y="492" type="line"/>
      <point x="1277" y="443" type="line"/>
      <point x="1136" y="443" type="line"/>
      <point x="1136" y="0" type="line"/>
      <point x="1074" y="0" type="line"/>
      <point x="1074" y="443" type="line"/>
      <point x="902" y="443" type="line"/>
      <point x="902" y="0" type="line"/>
      <point x="841" y="0" type="line"/>
      <point x="841" y="492" type="line"/>
    </contour>
  </outline>
</glyph>
<glyph name="u0BCB" format="1">
  <advance width="1219"/>
  <unicode hex="0BCB"/>
  <outline>
    <contour>
      <point x="50" y="406" type="line"/>
      <point x="50" y="569"/>
      <point x="267" y="799"/>
      <point x="419" y="799" type="qcurve" smooth="yes"/>
      <point x="531" y="799"/>
      <point x="690" y="691"/>
      <point x="690" y="615" type="qcurve" smooth="yes"/>
      <point x="690" y="558"/>
      <point x="611" y="479"/>
      <point x="554" y="479" type="qcurve" smooth="yes"/>
      <point x="497" y="479"/>
      <point x="419" y="558"/>
      <point x="419" y="615" type="qcurve" smooth="yes"/>
      <point x="419" y="659"/>
      <point x="473" y="734"/>
      <point x="518" y="750" type="qcurve"/>
      <point x="501" y="756"/>
      <point x="451" y="762"/>
      <point x="419" y="762" type="qcurve" smooth="yes"/>
      <point x="291" y="762"/>
      <point x="112" y="553"/>
      <point x="112" y="406" type="qcurve" smooth="yes"/>
      <point x="112" y="254"/>
      <point x="291" y="37"/>
      <point x="419" y="37" type="qcurve" smooth="yes"/>
      <point x="451" y="37"/>
      <point x="500" y="43"/>
      <point x="518" y="49" type="qcurve"/>
      <point x="474" y="65"/>
      <point x="419" y="140"/>
      <point x="419" y="184" type="qcurve" smooth="yes"/>
      <point x="419" y="241"/>
      <point x="498" y="320"/>
      <point x="554" y="320" type="qcurve" smooth="yes"/>
      <point x="611" y="320"/>
      <point x="690" y="241"/>
      <point x="690" y="184" type="qcurve" smooth="yes"/>
      <point x="690" y="103"/>
      <point x="531" y="-12"/>
      <point x="419" y="-12" type="qcurve" smooth="yes"/>
      <point x="267" y="-12"/>
      <point x="50" y="232"/>
      <point x="50" y="406" type="qcurve"/>
    </contour>
    <contour>
      <point x="468" y="615" type="line"/>
      <point x="468" y="579"/>
      <point x="519" y="529"/>
      <point x="554" y="529" type="qcurve" smooth="yes"/>
      <point x="590" y="529"/>
      <point x="640" y="579"/>
      <point x="640" y="615" type="qcurve" smooth="yes"/>
      <point x="640" y="656"/>
      <point x="590" y="713"/>
      <point x="554" y="713" type="qcurve" smooth="yes"/>
      <point x="518" y="713"/>
      <point x="468" y="655"/>
      <point x="468" y="615" type="qcurve"/>
    </contour>
    <contour>
      <point x="468" y="184" type="line"/>
      <point x="468" y="143"/>
      <point x="519" y="86"/>
      <point x="554" y="86" type="qcurve" smooth="yes"/>
      <point x="590" y="86"/>
      <point x="640" y="144"/>
      <point x="640" y="184" type="qcurve" smooth="yes"/>
      <point x="640" y="220"/>
      <point x="590" y="270"/>
      <point x="554" y="270" type="qcurve" smooth="yes"/>
      <point x="518" y="270"/>
      <point x="468" y="220"/>
      <point x="468" y="184" type="qcurve"/>
    </contour>
    <contour>
      <point x="776" y="492" type="line"/>
      <point x="1212" y="492" type="line"/>
      <point x="1212" y="443" type="line"/>
      <point x="1071" y="443" type="line"/>
      <point x="1071" y="0" type="line"/>
      <point x="1009" y="0" type="line"/>
      <point x="1009" y="443" type="line"/>
      <point x="837" y="443" type="line"/>
      <point x="837" y="0" type="line"/>
      <point x="776" y="0" type="line"/>
      <point x="776" y="492" type="line"/>
    </contour>
  </outline>
</glyph>
<glyph name="u0BCC" format="1">
  <advance width="1677"/>
  <unicode hex="0BCC"/>
  <outline>
    <contour>
      <point x="325" y="154" type="line"/>
      <point x="325" y="106"/>
      <point x="382" y="37"/>
      <point x="423" y="37" type="qcurve" smooth="yes"/>
      <point x="464" y="37"/>
      <point x="521" y="106"/>
      <point x="521" y="154" type="qcurve" smooth="yes"/>
      <point x="521" y="202"/>
      <point x="463" y="270"/>
      <point x="423" y="270" type="qcurve" smooth="yes"/>
      <point x="382" y="270"/>
      <point x="325" y="202"/>
      <point x="325" y="154" type="qcurve"/>
    </contour>
    <contour>
      <point x="54" y="381" type="line"/>
      <point x="54" y="559"/>
      <point x="278" y="811"/>
      <point x="435" y="811" type="qcurve" smooth="yes"/>
      <point x="547" y="811"/>
      <point x="706" y="660"/>
      <point x="706" y="553" type="qcurve" smooth="yes"/>
      <point x="706" y="0" type="line"/>
      <point x="644" y="0" type="line"/>
      <point x="644" y="553" type="line" smooth="yes"/>
      <point x="644" y="639"/>
      <point x="521" y="762"/>
      <point x="435" y="762" type="qcurve" smooth="yes"/>
      <point x="300" y="762"/>
      <point x="109" y="538"/>
      <point x="109" y="381" type="qcurve" smooth="yes"/>
      <point x="109" y="254"/>
      <point x="221" y="70"/>
      <point x="306" y="55" type="qcurve"/>
      <point x="288" y="76"/>
      <point x="269" y="130"/>
      <point x="269" y="160" type="qcurve" smooth="yes"/>
      <point x="269" y="226"/>
      <point x="359" y="320"/>
      <point x="423" y="320" type="qcurve" smooth="yes"/>
      <point x="487" y="320"/>
      <point x="577" y="226"/>
      <point x="577" y="160" type="qcurve" smooth="yes"/>
      <point x="577" y="75"/>
      <point x="483" y="-12"/>
      <point x="392" y="-12" type="qcurve" smooth="yes"/>
      <point x="252" y="-12"/>
      <point x="54" y="218"/>
      <point x="54" y="381" type="qcurve"/>
    </contour>
    <contour>
      <point x="958" y="148" type="line"/>
      <point x="958" y="107"/>
      <point x="1001" y="49"/>
      <point x="1031" y="49" type="qcurve" smooth="yes"/>
      <point x="1062" y="49"/>
      <point x="1105" y="107"/>
      <point x="1105" y="148" type="qcurve" smooth="yes"/>
      <point x="1105" y="184"/>
      <point x="1062" y="234"/>
      <point x="1031" y="234" type="qcurve" smooth="yes"/>
      <point x="1000" y="234"/>
      <point x="958" y="183"/>
      <point x="958" y="148" type="qcurve"/>
    </contour>
    <contour>
      <point x="1240" y="492" type="line"/>
      <point x="1671" y="492" type="line"/>
      <point x="1671" y="443" type="line"/>
      <point x="1535" y="443" type="line"/>
      <point x="1535" y="0" type="line"/>
      <point x="1474" y="0" type="line"/>
      <point x="1474" y="443" type="line"/>
      <point x="1290" y="443" type="line"/>
      <point x="1290" y="0" type="line"/>
      <point x="1228" y="0" type="line"/>
      <point x="1228" y="246" type="line" smooth="yes"/>
      <point x="1228" y="332"/>
      <point x="1120" y="455"/>
      <point x="1044" y="455" type="qcurve" smooth="yes"/>
      <point x="968" y="455"/>
      <point x="859" y="326"/>
      <point x="859" y="234" type="qcurve" smooth="yes"/>
      <point x="859" y="187"/>
      <point x="897" y="103"/>
      <point x="933" y="74" type="qcurve"/>
      <point x="921" y="95"/>
      <point x="908" y="133"/>
      <point x="908" y="148" type="qcurve" smooth="yes"/>
      <point x="908" y="205"/>
      <point x="981" y="283"/>
      <point x="1031" y="283" type="qcurve" smooth="yes"/>
      <point x="1081" y="283"/>
      <point x="1154" y="204"/>
      <point x="1154" y="148" type="qcurve" smooth="yes"/>
      <point x="1154" y="82"/>
      <point x="1068" y="-12"/>
      <point x="1007" y="-12" type="qcurve" smooth="yes"/>
      <point x="923" y="-12"/>
      <point x="804" y="132"/>
      <point x="804" y="234" type="qcurve" smooth="yes"/>
      <point x="804" y="346"/>
      <point x="944" y="504"/>
      <point x="1044" y="504" type="qcurve" smooth="yes"/>
      <point x="1109" y="504"/>
      <point x="1215" y="451"/>
      <point x="1240" y="406" type="qcurve"/>
      <point x="1240" y="492" type="line"/>
    </contour>
  </outline>
</glyph>
<glyph name="u0BCD" format="1">
  <advance width="125"/>
  <unicode hex="0BCD"/>
  <outline>
    <contour>
      <point x="-304" y="688" type="line"/>
      <point x="-304" y="714"/>
      <point x="-268" y="750"/>
      <point x="-242" y="750" type="qcurve" smooth="yes"/>
      <point x="-216" y="750"/>
      <point x="-181" y="714"/>
      <point x="-181" y="688" type="qcurve" smooth="yes"/>
      <point x="-181" y="662"/>
      <point x="-216" y="627"/>
      <point x="-242" y="627" type="qcurve" smooth="yes"/>
      <point x="-268" y="627"/>
      <point x="-304" y="663"/>
      <point x="-304" y="688" type="qcurve"/>
    </contour>
  </outline>
</glyph>
<glyph name="u0BE6" format="1">
  <advance width="636"/>
  <unicode hex="0BE6"/>
  <outline>
    <contour>
      <point x="66" y="150"/>
      <point x="66" y="256" type="qcurve" smooth="yes"/>
      <point x="66" y="359"/>
      <point x="213" y="505"/>
      <point x="318" y="505" type="qcurve" smooth="yes"/>
      <point x="422" y="505"/>
      <point x="570" y="359"/>
      <point x="570" y="256" type="qcurve" smooth="yes"/>
      <point x="570" y="150"/>
      <point x="422" y="1"/>
      <point x="318" y="1" type="qcurve" smooth="yes"/>
      <point x="213" y="1"/>
    </contour>
    <contour>
      <point x="516" y="169"/>
      <point x="516" y="256" type="qcurve" smooth="yes"/>
      <point x="516" y="339"/>
      <point x="399" y="458"/>
      <point x="316" y="458" type="qcurve" smooth="yes"/>
      <point x="235" y="458"/>
      <point x="121" y="339"/>
      <point x="121" y="256" type="qcurve" smooth="yes"/>
      <point x="121" y="169"/>
      <point x="235" y="48"/>
      <point x="316" y="48" type="qcurve" smooth="yes"/>
      <point x="399" y="48"/>
    </contour>
  </outline>
</glyph>
<glyph name="u0BE7" format="1">
  <advance width="700"/>
  <unicode hex="0BE7"/>
  <outline>
    <contour>
      <point x="246" y="270" type="line"/>
      <point x="369" y="270" type="line"/>
      <point x="369" y="443" type="line"/>
      <point x="246" y="443" type="line"/>
    </contour>
    <contour>
      <point x="123" y="160" type="qcurve"/>
      <point x="123" y="110"/>
      <point x="202" y="37"/>
      <point x="258" y="37" type="qcurve" smooth="yes"/>
      <point x="303" y="37"/>
      <point x="369" y="95"/>
      <point x="369" y="135" type="qcurve" smooth="yes"/>
      <point x="369" y="221" type="line"/>
      <point x="184" y="221" type="line" smooth="yes"/>
      <point x="158" y="221"/>
      <point x="123" y="186"/>
    </contour>
    <contour>
      <point x="184" y="492" type="line"/>
      <point x="565" y="492" type="line"/>
      <point x="565" y="443" type="line"/>
      <point x="430" y="443" type="line"/>
      <point x="430" y="270" type="line"/>
      <point x="504" y="270" type="line" smooth="yes"/>
      <point x="561" y="270"/>
      <point x="639" y="192"/>
      <point x="639" y="135" type="qcurve" smooth="yes"/>
      <point x="639" y="74"/>
      <point x="567" y="-12"/>
      <point x="516" y="-12" type="qcurve" smooth="yes"/>
      <point x="502" y="-12"/>
      <point x="472" y="-6"/>
      <point x="455" y="0" type="qcurve"/>
      <point x="467" y="49" type="line"/>
      <point x="478" y="43"/>
      <point x="503" y="37"/>
      <point x="516" y="37" type="qcurve" smooth="yes"/>
      <point x="542" y="37"/>
      <point x="578" y="95"/>
      <point x="578" y="135" type="qcurve" smooth="yes"/>
      <point x="578" y="171"/>
      <point x="535" y="221"/>
      <point x="504" y="221" type="qcurve" smooth="yes"/>
      <point x="430" y="221" type="line"/>
      <point x="430" y="135" type="line" smooth="yes"/>
      <point x="430" y="74"/>
      <point x="329" y="-12"/>
      <point x="258" y="-12" type="qcurve" smooth="yes"/>
      <point x="177" y="-12"/>
      <point x="61" y="89"/>
      <point x="61" y="160" type="qcurve" smooth="yes"/>
      <point x="61" y="205"/>
      <point x="134" y="270"/>
      <point x="184" y="270" type="qcurve"/>
    </contour>
  </outline>
</glyph>
<glyph name="u0BE8" format="1">
  <advance width="725"/>
  <unicode hex="0BE8"/>
  <outline>
    <contour>
      <point x="111" y="344" type="qcurve"/>
      <point x="111" y="318"/>
      <point x="146" y="283"/>
      <point x="172" y="283" type="qcurve" smooth="yes"/>
      <point x="198" y="283"/>
      <point x="234" y="318"/>
      <point x="234" y="344" type="qcurve" smooth="yes"/>
      <point x="234" y="375"/>
      <point x="198" y="418"/>
      <point x="172" y="418" type="qcurve" smooth="yes"/>
      <point x="146" y="418"/>
      <point x="111" y="375"/>
    </contour>
    <contour>
      <point x="61" y="356" type="qcurve"/>
      <point x="61" y="417"/>
      <point x="184" y="504"/>
      <point x="270" y="504" type="qcurve" smooth="yes"/>
      <point x="372" y="504"/>
      <point x="516" y="388"/>
      <point x="516" y="307" type="qcurve" smooth="yes"/>
      <point x="516" y="231"/>
      <point x="393" y="123"/>
      <point x="307" y="123" type="qcurve" smooth="yes"/>
      <point x="172" y="123" type="line" smooth="yes"/>
      <point x="151" y="123"/>
      <point x="123" y="101"/>
      <point x="123" y="86" type="qcurve" smooth="yes"/>
      <point x="123" y="71"/>
      <point x="151" y="49"/>
      <point x="172" y="49" type="qcurve" smooth="yes"/>
      <point x="664" y="49" type="line"/>
      <point x="664" y="0" type="line"/>
      <point x="172" y="0" type="line" smooth="yes"/>
      <point x="127" y="0"/>
      <point x="61" y="50"/>
      <point x="61" y="86" type="qcurve" smooth="yes"/>
      <point x="61" y="122"/>
      <point x="127" y="172"/>
      <point x="172" y="172" type="qcurve" smooth="yes"/>
      <point x="307" y="172" type="line" smooth="yes"/>
      <point x="368" y="172"/>
      <point x="455" y="251"/>
      <point x="455" y="307" type="qcurve" smooth="yes"/>
      <point x="455" y="368"/>
      <point x="347" y="455"/>
      <point x="270" y="455" type="qcurve" smooth="yes"/>
      <point x="197" y="455" type="line"/>
      <point x="236" y="441"/>
      <point x="283" y="380"/>
      <point x="283" y="344" type="qcurve" smooth="yes"/>
      <point x="283" y="299"/>
      <point x="218" y="234"/>
      <point x="172" y="234" type="qcurve" smooth="yes"/>
      <point x="127" y="234"/>
      <point x="61" y="306"/>
    </contour>
  </outline>
</glyph>
<glyph name="u0BEA" format="1">
  <advance width="746"/>
  <unicode hex="0BEA"/>
  <outline>
    <contour>
      <point x="246" y="270" type="line"/>
      <point x="369" y="270" type="line"/>
      <point x="369" y="443" type="line"/>
      <point x="246" y="443" type="line"/>
    </contour>
    <contour>
      <point x="123" y="160" type="qcurve"/>
      <point x="123" y="110"/>
      <point x="202" y="37"/>
      <point x="258" y="37" type="qcurve" smooth="yes"/>
      <point x="303" y="37"/>
      <point x="369" y="95"/>
      <point x="369" y="135" type="qcurve" smooth="yes"/>
      <point x="369" y="221" type="line"/>
      <point x="184" y="221" type="line" smooth="yes"/>
      <point x="158" y="221"/>
      <point x="123" y="186"/>
    </contour>
    <contour>
      <point x="184" y="492" type="line"/>
      <point x="544" y="492" type="line"/>
      <point x="544" y="443" type="line"/>
      <point x="430" y="443" type="line"/>
      <point x="430" y="270" type="line"/>
      <point x="624" y="270" type="line"/>
      <point x="624" y="492" type="line"/>
      <point x="685" y="492" type="line"/>
      <point x="685" y="221" type="line"/>
      <point x="430" y="221" type="line"/>
      <point x="430" y="135" type="line" smooth="yes"/>
      <point x="430" y="74"/>
      <point x="329" y="-12"/>
      <point x="258" y="-12" type="qcurve" smooth="yes"/>
      <point x="177" y="-12"/>
      <point x="61" y="89"/>
      <point x="61" y="160" type="qcurve" smooth="yes"/>
      <point x="61" y="205"/>
      <point x="134" y="270"/>
      <point x="184" y="270" type="qcurve"/>
    </contour>
  </outline>
</glyph>
<glyph name="u0BEB" format="1">
  <advance width="1055"/>
  <unicode hex="0BEB"/>
  <outline>
    <contour>
      <point x="309" y="-268"/>
      <point x="434" y="-268" type="qcurve" smooth="yes"/>
      <point x="582" y="-268"/>
      <point x="790" y="-39"/>
      <point x="790" y="125" type="qcurve" smooth="yes"/>
      <point x="790" y="182"/>
      <point x="721" y="260"/>
      <point x="673" y="260" type="qcurve" smooth="yes"/>
      <point x="655" y="260"/>
      <point x="613" y="234"/>
      <point x="593" y="211" type="qcurve"/>
      <point x="593" y="2" type="line"/>
      <point x="532" y="2" type="line"/>
      <point x="532" y="445" type="line"/>
      <point x="384" y="445" type="line"/>
      <point x="384" y="2" type="line"/>
      <point x="323" y="2" type="line"/>
      <point x="323" y="494" type="line"/>
      <point x="765" y="494" type="line"/>
      <point x="765" y="445" type="line"/>
      <point x="593" y="445" type="line"/>
      <point x="593" y="272" type="line"/>
      <point x="603" y="289"/>
      <point x="650" y="309"/>
      <point x="679" y="309" type="qcurve" smooth="yes"/>
      <point x="750" y="309"/>
      <point x="852" y="201"/>
      <point x="852" y="125" type="qcurve" smooth="yes"/>
      <point x="852" y="-58"/>
      <point x="607" y="-318"/>
      <point x="434" y="-318" type="qcurve" smooth="yes"/>
      <point x="286" y="-318"/>
      <point x="63" y="-69"/>
      <point x="63" y="154" type="qcurve" smooth="yes"/>
      <point x="63" y="445"/>
      <point x="274" y="740"/>
      <point x="527" y="740" type="qcurve" smooth="yes"/>
      <point x="783" y="740"/>
      <point x="1022" y="472"/>
      <point x="1022" y="248" type="qcurve" smooth="yes"/>
      <point x="1022" y="2" type="line"/>
      <point x="960" y="2" type="line"/>
      <point x="960" y="248" type="line" smooth="yes"/>
      <point x="960" y="448"/>
      <point x="756" y="690"/>
      <point x="298" y="690"/>
      <point x="118" y="422"/>
      <point x="118" y="154" type="qcurve"/>
      <point x="119" y="-49"/>
    </contour>
  </outline>
</glyph>
<glyph name="u0BEC" format="1">
  <advance width="941"/>
  <unicode hex="0BEC"/>
  <outline>
    <contour>
      <point x="246" y="443" type="line"/>
      <point x="246" y="270" type="line"/>
      <point x="369" y="270" type="line"/>
      <point x="369" y="443" type="line"/>
    </contour>
    <contour>
      <point x="123" y="160" type="qcurve"/>
      <point x="123" y="110"/>
      <point x="202" y="37"/>
      <point x="258" y="37" type="qcurve" smooth="yes"/>
      <point x="303" y="37"/>
      <point x="369" y="95"/>
      <point x="369" y="135" type="qcurve" smooth="yes"/>
      <point x="369" y="221" type="line"/>
      <point x="184" y="221" type="line" smooth="yes"/>
      <point x="158" y="221"/>
      <point x="123" y="186"/>
    </contour>
    <contour>
      <point x="61" y="160" type="qcurve"/>
      <point x="61" y="205"/>
      <point x="134" y="270"/>
      <point x="184" y="270" type="qcurve"/>
      <point x="184" y="492" type="line"/>
      <point x="602" y="492" type="line"/>
      <point x="602" y="443" type="line"/>
      <point x="430" y="443" type="line"/>
      <point x="430" y="270" type="line"/>
      <point x="880" y="270" type="line"/>
      <point x="880" y="221" type="line"/>
      <point x="771" y="221" type="line"/>
      <point x="771" y="0" type="line"/>
      <point x="709" y="0" type="line"/>
      <point x="709" y="221" type="line"/>
      <point x="600" y="221" type="line"/>
      <point x="600" y="0" type="line"/>
      <point x="539" y="0" type="line"/>
      <point x="539" y="221" type="line"/>
      <point x="430" y="221" type="line"/>
      <point x="430" y="135" type="line" smooth="yes"/>
      <point x="430" y="74"/>
      <point x="329" y="-12"/>
      <point x="258" y="-12" type="qcurve" smooth="yes"/>
      <point x="177" y="-12"/>
      <point x="61" y="89"/>
    </contour>
  </outline>
</glyph>
<glyph name="u0BED" format="1">
  <advance width="802"/>
  <unicode hex="0BED"/>
  <outline>
    <contour>
      <point x="221" y="135" type="qcurve"/>
      <point x="221" y="94"/>
      <point x="264" y="37"/>
      <point x="295" y="37" type="qcurve" smooth="yes"/>
      <point x="326" y="37"/>
      <point x="369" y="95"/>
      <point x="369" y="135" type="qcurve" smooth="yes"/>
      <point x="369" y="171"/>
      <point x="326" y="221"/>
      <point x="295" y="221" type="qcurve" smooth="yes"/>
      <point x="264" y="221"/>
      <point x="221" y="171"/>
    </contour>
    <contour>
      <point x="565" y="443" type="line"/>
      <point x="320" y="443" type="line" smooth="yes"/>
      <point x="234" y="443"/>
      <point x="111" y="313"/>
      <point x="111" y="221" type="qcurve" smooth="yes"/>
      <point x="111" y="167"/>
      <point x="163" y="75"/>
      <point x="209" y="49" type="qcurve"/>
      <point x="191" y="70"/>
      <point x="172" y="114"/>
      <point x="172" y="135" type="qcurve" smooth="yes"/>
      <point x="172" y="192"/>
      <point x="245" y="270"/>
      <point x="295" y="270" type="qcurve" smooth="yes"/>
      <point x="352" y="270"/>
      <point x="430" y="192"/>
      <point x="430" y="135" type="qcurve" smooth="yes"/>
      <point x="430" y="74"/>
      <point x="337" y="-12"/>
      <point x="270" y="-12" type="qcurve" smooth="yes"/>
      <point x="184" y="-12"/>
      <point x="61" y="124"/>
      <point x="61" y="221" type="qcurve" smooth="yes"/>
      <point x="61" y="333"/>
      <point x="213" y="492"/>
      <point x="320" y="492" type="qcurve" smooth="yes"/>
      <point x="792" y="492" type="line"/>
      <point x="792" y="443" type="line"/>
      <point x="627" y="443" type="line"/>
      <point x="627" y="0" type="line"/>
      <point x="565" y="0" type="line"/>
    </contour>
  </outline>
</glyph>
<glyph name="u0BEE" format="1">
  <advance width="1142"/>
  <unicode hex="0BEE"/>
  <outline>
    <contour>
      <point x="628" y="378"/>
      <point x="630" y="311" type="qcurve"/>
      <point x="629" y="250"/>
      <point x="663" y="184" type="qcurve"/>
      <point x="612" y="184" type="line"/>
      <point x="578" y="224"/>
      <point x="572" y="315" type="qcurve" smooth="yes"/>
      <point x="568" y="387"/>
      <point x="650" y="505"/>
      <point x="751" y="505" type="qcurve" smooth="yes"/>
      <point x="839" y="505"/>
      <point x="932" y="398"/>
      <point x="926" y="284" type="qcurve" smooth="yes"/>
      <point x="922" y="217"/>
      <point x="909" y="185" type="qcurve"/>
      <point x="1020" y="185" type="line"/>
      <point x="1020" y="493" type="line"/>
      <point x="1081" y="493" type="line"/>
      <point x="1081" y="-122" type="line"/>
      <point x="1020" y="-122" type="line"/>
      <point x="1020" y="136" type="line"/>
      <point x="897" y="136" type="line"/>
      <point x="860" y="36"/>
      <point x="641" y="-85"/>
      <point x="497" y="-85" type="qcurve" smooth="yes"/>
      <point x="402" y="-85"/>
      <point x="218" y="-35"/>
      <point x="135" y="13" type="qcurve" smooth="yes"/>
      <point x="101" y="33"/>
      <point x="61" y="86"/>
      <point x="61" y="112" type="qcurve" smooth="yes"/>
      <point x="61" y="143"/>
      <point x="111" y="185"/>
      <point x="147" y="185" type="qcurve" smooth="yes"/>
      <point x="848" y="185" type="line"/>
      <point x="869" y="230"/>
      <point x="868" y="284" type="qcurve"/>
      <point x="874" y="331"/>
      <point x="842" y="442"/>
      <point x="751" y="452" type="qcurve"/>
      <point x="688" y="450"/>
    </contour>
    <contour>
      <point x="147" y="75" type="qcurve" smooth="yes"/>
      <point x="200" y="22"/>
      <point x="379" y="-36"/>
      <point x="491" y="-36" type="qcurve" smooth="yes"/>
      <point x="618" y="-36"/>
      <point x="807" y="59"/>
      <point x="835" y="136" type="qcurve"/>
      <point x="147" y="136" type="line" smooth="yes"/>
      <point x="137" y="136"/>
      <point x="122" y="121"/>
      <point x="122" y="112" type="qcurve" smooth="yes"/>
      <point x="122" y="106"/>
      <point x="135" y="87"/>
    </contour>
  </outline>
</glyph>
<glyph name="u0BEF" format="1">
  <advance width="987"/>
  <unicode hex="0BEF"/>
  <outline>
    <contour>
      <point x="246" y="270" type="line"/>
      <point x="369" y="270" type="line"/>
      <point x="369" y="443" type="line"/>
      <point x="246" y="443" type="line"/>
    </contour>
    <contour>
      <point x="123" y="160" type="qcurve"/>
      <point x="123" y="115"/>
      <point x="202" y="49"/>
      <point x="258" y="49" type="qcurve" smooth="yes"/>
      <point x="303" y="49"/>
      <point x="369" y="100"/>
      <point x="369" y="135" type="qcurve" smooth="yes"/>
      <point x="369" y="221" type="line"/>
      <point x="184" y="221" type="line" smooth="yes"/>
      <point x="158" y="221"/>
      <point x="123" y="186"/>
    </contour>
    <contour>
      <point x="574" y="123" type="qcurve"/>
      <point x="574" y="87"/>
      <point x="602" y="37"/>
      <point x="623" y="37" type="qcurve" smooth="yes"/>
      <point x="644" y="37"/>
      <point x="673" y="87"/>
      <point x="673" y="123" type="qcurve" smooth="yes"/>
      <point x="673" y="155"/>
      <point x="632" y="209"/>
      <point x="599" y="221" type="qcurve"/>
      <point x="587" y="200"/>
      <point x="574" y="150"/>
    </contour>
    <contour>
      <point x="61" y="160" type="qcurve"/>
      <point x="61" y="205"/>
      <point x="134" y="270"/>
      <point x="184" y="270" type="qcurve"/>
      <point x="184" y="492" type="line"/>
      <point x="547" y="492" type="line"/>
      <point x="547" y="443" type="line"/>
      <point x="430" y="443" type="line"/>
      <point x="430" y="270" type="line"/>
      <point x="574" y="270" type="line"/>
      <point x="599" y="304"/>
      <point x="680" y="344"/>
      <point x="728" y="344" type="qcurve" smooth="yes"/>
      <point x="822" y="344"/>
      <point x="926" y="243"/>
      <point x="926" y="172" type="qcurve" smooth="yes"/>
      <point x="926" y="124"/>
      <point x="894" y="36"/>
      <point x="865" y="0" type="qcurve"/>
      <point x="797" y="0" type="line"/>
      <point x="830" y="39"/>
      <point x="865" y="128"/>
      <point x="865" y="172" type="qcurve" smooth="yes"/>
      <point x="865" y="222"/>
      <point x="796" y="295"/>
      <point x="728" y="295" type="qcurve" smooth="yes"/>
      <point x="696" y="295"/>
      <point x="644" y="275"/>
      <point x="629" y="258" type="qcurve"/>
      <point x="671" y="243"/>
      <point x="722" y="168"/>
      <point x="722" y="123" type="qcurve" smooth="yes"/>
      <point x="722" y="66"/>
      <point x="664" y="-12"/>
      <point x="623" y="-12" type="qcurve" smooth="yes"/>
      <point x="582" y="-12"/>
      <point x="525" y="66"/>
      <point x="525" y="123" type="qcurve" smooth="yes"/>
      <point x="525" y="150"/>
      <point x="537" y="200"/>
      <point x="550" y="221" type="qcurve"/>
      <point x="430" y="221" type="line"/>
      <point x="430" y="135" type="line" smooth="yes"/>
      <point x="430" y="74"/>
      <point x="329" y="-12"/>
      <point x="258" y="-12" type="qcurve" smooth="yes"/>
      <point x="177" y="-12"/>
      <point x="61" y="89"/>
    </contour>
  </outline>
</glyph>
<glyph name="u0BF0" format="1">
  <advance width="823"/>
  <unicode hex="0BF0"/>
  <outline>
    <contour>
      <point x="380" y="78" type="qcurve"/>
      <point x="339" y="18"/>
      <point x="267" y="-21"/>
      <point x="231" y="-21" type="qcurve" smooth="yes"/>
      <point x="159" y="-21"/>
      <point x="61" y="77"/>
      <point x="61" y="149" type="qcurve" smooth="yes"/>
      <point x="61" y="467" type="line"/>
      <point x="124" y="467" type="line"/>
      <point x="124" y="149" type="line" smooth="yes"/>
      <point x="124" y="97"/>
      <point x="186" y="24"/>
      <point x="231" y="24" type="qcurve" smooth="yes"/>
      <point x="277" y="24"/>
      <point x="340" y="97"/>
      <point x="340" y="149" type="qcurve" smooth="yes"/>
      <point x="340" y="467" type="line"/>
      <point x="402" y="467" type="line"/>
      <point x="402" y="147" type="line"/>
      <point x="422" y="91"/>
      <point x="498" y="24"/>
      <point x="543" y="24" type="qcurve" smooth="yes"/>
      <point x="608" y="24"/>
      <point x="701" y="166"/>
      <point x="701" y="264" type="qcurve" smooth="yes"/>
      <point x="701" y="397"/>
      <point x="541" y="586"/>
      <point x="428" y="586" type="qcurve" smooth="yes"/>
      <point x="225" y="586" type="line"/>
      <point x="225" y="631" type="line"/>
      <point x="428" y="631" type="line" smooth="yes"/>
      <point x="567" y="631"/>
      <point x="762" y="416"/>
      <point x="762" y="264" type="qcurve" smooth="yes"/>
      <point x="762" y="144"/>
      <point x="633" y="-21"/>
      <point x="543" y="-21" type="qcurve" smooth="yes"/>
      <point x="488" y="-21"/>
      <point x="405" y="20"/>
    </contour>
  </outline>
</glyph>
<glyph name="u0BF1" format="1">
  <advance width="684"/>
  <unicode hex="0BF1"/>
  <outline>
    <contour>
      <point x="334" y="444" type="line"/>
      <point x="348" y="472"/>
      <point x="414" y="505"/>
      <point x="457" y="505" type="qcurve" smooth="yes"/>
      <point x="679" y="505" type="line"/>
      <point x="679" y="450" type="line"/>
      <point x="580" y="450" type="line"/>
      <point x="580" y="1" type="line"/>
      <point x="519" y="1" type="line"/>
      <point x="519" y="450" type="line"/>
      <point x="457" y="450" type="line" smooth="yes"/>
      <point x="426" y="450"/>
      <point x="372" y="405"/>
      <point x="359" y="370" type="qcurve"/>
      <point x="359" y="1" type="line"/>
      <point x="297" y="1" type="line"/>
      <point x="297" y="370" type="line" smooth="yes"/>
      <point x="297" y="406"/>
      <point x="254" y="456"/>
      <point x="224" y="456" type="qcurve" smooth="yes"/>
      <point x="193" y="456"/>
      <point x="150" y="405"/>
      <point x="150" y="370" type="qcurve" smooth="yes"/>
      <point x="150" y="1" type="line"/>
      <point x="89" y="1" type="line"/>
      <point x="89" y="370" type="line" smooth="yes"/>
      <point x="89" y="427"/>
      <point x="167" y="505"/>
      <point x="224" y="505" type="qcurve" smooth="yes"/>
      <point x="252" y="505"/>
      <point x="310" y="473"/>
      <point x="334" y="444" type="qcurve"/>
    </contour>
  </outline>
</glyph>
<glyph name="u0BF2" format="1">
  <advance width="759"/>
  <unicode hex="0BF2"/>
  <outline>
    <contour>
      <point x="219" y="443" type="line"/>
      <point x="219" y="270" type="line"/>
      <point x="342" y="270" type="line"/>
      <point x="342" y="443" type="line"/>
    </contour>
    <contour>
      <point x="96" y="160" type="qcurve"/>
      <point x="96" y="110"/>
      <point x="175" y="37"/>
      <point x="231" y="37" type="qcurve" smooth="yes"/>
      <point x="276" y="37"/>
      <point x="342" y="95"/>
      <point x="342" y="135" type="qcurve" smooth="yes"/>
      <point x="342" y="221" type="line"/>
      <point x="157" y="221" type="line" smooth="yes"/>
      <point x="131" y="221"/>
      <point x="96" y="186"/>
    </contour>
    <contour>
      <point x="34" y="160" type="qcurve"/>
      <point x="34" y="205"/>
      <point x="107" y="270"/>
      <point x="157" y="270" type="qcurve"/>
      <point x="157" y="492" type="line"/>
      <point x="575" y="492" type="line"/>
      <point x="575" y="443" type="line"/>
      <point x="403" y="443" type="line"/>
      <point x="403" y="270" type="line"/>
      <point x="649" y="270" type="line"/>
      <point x="649" y="221" type="line"/>
      <point x="561" y="221" type="line"/>
      <point x="561" y="135" type="line"/>
      <point x="576" y="152"/>
      <point x="621" y="172"/>
      <point x="647" y="172" type="qcurve" smooth="yes"/>
      <point x="704" y="172"/>
      <point x="782" y="79"/>
      <point x="782" y="12" type="qcurve" smooth="yes"/>
      <point x="782" y="-59"/>
      <point x="646" y="-160"/>
      <point x="549" y="-160" type="qcurve" smooth="yes"/>
      <point x="204" y="-160" type="line" smooth="yes"/>
      <point x="163" y="-160"/>
      <point x="106" y="-232"/>
      <point x="106" y="-283" type="qcurve"/>
      <point x="57" y="-283" type="line"/>
      <point x="57" y="-212"/>
      <point x="143" y="-111"/>
      <point x="204" y="-111" type="qcurve" smooth="yes"/>
      <point x="549" y="-111" type="line" smooth="yes"/>
      <point x="620" y="-111"/>
      <point x="721" y="-38"/>
      <point x="721" y="12" type="qcurve" smooth="yes"/>
      <point x="721" y="57"/>
      <point x="678" y="123"/>
      <point x="647" y="123" type="qcurve" smooth="yes"/>
      <point x="617" y="123"/>
      <point x="569" y="85"/>
      <point x="561" y="55" type="qcurve"/>
      <point x="561" y="0" type="line"/>
      <point x="499" y="0" type="line"/>
      <point x="499" y="221" type="line"/>
      <point x="403" y="221" type="line"/>
      <point x="403" y="135" type="line" smooth="yes"/>
      <point x="403" y="74"/>
      <point x="302" y="-12"/>
      <point x="231" y="-12" type="qcurve" smooth="yes"/>
      <point x="150" y="-12"/>
      <point x="34" y="89"/>
    </contour>
  </outline>
</glyph>
<glyph name="u0BF9" format="1">
  <advance width="1587"/>
  <unicode hex="0BF9"/>
  <outline>
    <contour>
      <point x="986" y="290" type="qcurve" smooth="yes"/>
      <point x="1009" y="290"/>
      <point x="1041" y="325"/>
      <point x="1041" y="351" type="qcurve" smooth="yes"/>
      <point x="1041" y="387"/>
      <point x="1035" y="438"/>
      <point x="1029" y="456" type="qcurve"/>
      <point x="982" y="444"/>
      <point x="924" y="386"/>
      <point x="924" y="351" type="qcurve" smooth="yes"/>
      <point x="924" y="325"/>
      <point x="960" y="290"/>
    </contour>
    <contour>
      <point x="454" y="-270" type="qcurve" smooth="yes"/>
      <point x="602" y="-270"/>
      <point x="810" y="-41"/>
      <point x="810" y="123" type="qcurve" smooth="yes"/>
      <point x="810" y="180"/>
      <point x="741" y="258"/>
      <point x="693" y="258" type="qcurve" smooth="yes"/>
      <point x="675" y="258"/>
      <point x="633" y="232"/>
      <point x="613" y="209" type="qcurve"/>
      <point x="613" y="0" type="line"/>
      <point x="552" y="0" type="line"/>
      <point x="552" y="443" type="line"/>
      <point x="404" y="443" type="line"/>
      <point x="404" y="0" type="line"/>
      <point x="343" y="0" type="line"/>
      <point x="343" y="492" type="line"/>
      <point x="785" y="492" type="line"/>
      <point x="785" y="443" type="line"/>
      <point x="613" y="443" type="line"/>
      <point x="613" y="270" type="line"/>
      <point x="623" y="287"/>
      <point x="670" y="307"/>
      <point x="699" y="307" type="qcurve" smooth="yes"/>
      <point x="770" y="307"/>
      <point x="872" y="199"/>
      <point x="872" y="123" type="qcurve" smooth="yes"/>
      <point x="872" y="-60"/>
      <point x="627" y="-320"/>
      <point x="454" y="-320" type="qcurve" smooth="yes"/>
      <point x="267" y="-320"/>
      <point x="50" y="-7"/>
      <point x="50" y="216" type="qcurve" smooth="yes"/>
      <point x="50" y="432"/>
      <point x="289" y="738"/>
      <point x="595" y="738" type="qcurve" smooth="yes"/>
      <point x="812" y="738"/>
      <point x="1039" y="611"/>
      <point x="1066" y="510" type="qcurve"/>
      <point x="1084" y="511" type="line"/>
      <point x="1125" y="511"/>
      <point x="1169" y="489" type="qcurve" smooth="yes"/>
      <point x="1242" y="451"/>
      <point x="1255" y="372" type="qcurve" smooth="yes"/>
      <point x="1257" y="360"/>
      <point x="1257" y="348" type="qcurve" smooth="yes"/>
      <point x="1257" y="323"/>
      <point x="1249" y="294" type="qcurve"/>
      <point x="1537" y="294" type="line"/>
      <point x="1537" y="243" type="line"/>
      <point x="1146" y="243" type="line"/>
      <point x="1181" y="287" type="line" smooth="yes"/>
      <point x="1205" y="317"/>
      <point x="1205" y="353" type="qcurve" smooth="yes"/>
      <point x="1205" y="364"/>
      <point x="1203" y="374" type="qcurve" smooth="yes"/>
      <point x="1196" y="422"/>
      <point x="1153" y="444" type="qcurve" smooth="yes"/>
      <point x="1118" y="462"/>
      <point x="1084" y="462" type="qcurve"/>
      <point x="1091" y="446"/>
      <point x="1099" y="391"/>
      <point x="1099" y="351" type="qcurve" smooth="yes"/>
      <point x="1099" y="306"/>
      <point x="1033" y="241"/>
      <point x="986" y="241" type="qcurve" smooth="yes"/>
      <point x="938" y="241"/>
      <point x="869" y="306"/>
      <point x="869" y="351" type="qcurve" smooth="yes"/>
      <point x="869" y="406"/>
      <point x="949" y="491"/>
      <point x="1010" y="502" type="qcurve"/>
      <point x="988" y="584"/>
      <point x="793" y="689"/>
      <point x="595" y="689" type="qcurve"/>
      <point x="595" y="688" type="line"/>
      <point x="310" y="688"/>
      <point x="106" y="410"/>
      <point x="106" y="216" type="qcurve" smooth="yes"/>
      <point x="106" y="13"/>
      <point x="287" y="-270"/>
    </contour>
  </outline>
</glyph>
<glyph name="afii61664" format="1">
  <advance width="0"/>
  <unicode hex="200C"/>
  <outline>
    <contour>
      <point x="1" y="-363" type="line"/>
      <point x="0" y="861" type="line"/>
      <point x="49" y="861" type="line"/>
      <point x="50" y="-363" type="line"/>
      <point x="1" y="-363" type="line"/>
    </contour>
  </outline>
</glyph>
<glyph name="afii301" format="1">
  <advance width="0"/>
  <unicode hex="200D"/>
  <outline>
    <contour>
      <point x="0" y="-363" type="line"/>
      <point x="0" y="811" type="line"/>
      <point x="-197" y="811" type="line"/>
      <point x="-197" y="861" type="line"/>
      <point x="268" y="861" type="line"/>
      <point x="268" y="811" type="line"/>
      <point x="49" y="811" type="line"/>
      <point x="49" y="-363" type="line"/>
      <point x="0" y="-363" type="line"/>
    </contour>
  </outline>
</glyph>
<glyph name="endash" format="1">
  <advance width="614"/>
  <unicode hex="2013"/>
  <outline>
    <contour>
      <point x="0" y="246" type="line"/>
      <point x="0" y="295" type="line"/>
      <point x="553" y="295" type="line"/>
      <point x="553" y="246" type="line"/>
      <point x="0" y="246" type="line"/>
    </contour>
  </outline>
</glyph>
<glyph name="emdash" format="1">
  <advance width="1229"/>
  <unicode hex="2014"/>
  <outline>
    <contour>
      <point x="0" y="246" type="line"/>
      <point x="0" y="295" type="line"/>
      <point x="1229" y="295" type="line"/>
      <point x="1229" y="246" type="line"/>
      <point x="0" y="246" type="line"/>
    </contour>
  </outline>
</glyph>
<glyph name="quoteleft" format="1">
  <advance width="288"/>
  <unicode hex="2018"/>
  <outline>
    <contour>
      <point x="92" y="516" type="line"/>
      <point x="92" y="568"/>
      <point x="139" y="653"/>
      <point x="178" y="676" type="qcurve"/>
      <point x="197" y="645" type="line"/>
      <point x="171" y="630"/>
      <point x="141" y="574"/>
      <point x="141" y="541" type="qcurve"/>
      <point x="162" y="541"/>
      <point x="191" y="513"/>
      <point x="191" y="492" type="qcurve" smooth="yes"/>
      <point x="191" y="471"/>
      <point x="165" y="443"/>
      <point x="148" y="443" type="qcurve" smooth="yes"/>
      <point x="125" y="443"/>
      <point x="92" y="486"/>
      <point x="92" y="516" type="qcurve"/>
    </contour>
  </outline>
</glyph>
<glyph name="quoteright" format="1">
  <advance width="282"/>
  <unicode hex="2019"/>
  <outline>
    <contour>
      <point x="92" y="615" type="line"/>
      <point x="92" y="636"/>
      <point x="120" y="664"/>
      <point x="141" y="664" type="qcurve" smooth="yes"/>
      <point x="162" y="664"/>
      <point x="191" y="613"/>
      <point x="191" y="578" type="qcurve" smooth="yes"/>
      <point x="191" y="539"/>
      <point x="144" y="466"/>
      <point x="104" y="443" type="qcurve"/>
      <point x="92" y="467" type="line"/>
      <point x="115" y="481"/>
      <point x="141" y="534"/>
      <point x="141" y="565" type="qcurve"/>
      <point x="120" y="565"/>
      <point x="92" y="594"/>
      <point x="92" y="615" type="qcurve"/>
    </contour>
  </outline>
</glyph>
<glyph name="quotedblleft" format="1">
  <advance width="454"/>
  <unicode hex="201C"/>
  <outline>
    <contour>
      <point x="92" y="516" type="line"/>
      <point x="92" y="568"/>
      <point x="139" y="653"/>
      <point x="178" y="676" type="qcurve"/>
      <point x="197" y="645" type="line"/>
      <point x="171" y="630"/>
      <point x="141" y="574"/>
      <point x="141" y="541" type="qcurve"/>
      <point x="162" y="541"/>
      <point x="191" y="513"/>
      <point x="191" y="492" type="qcurve" smooth="yes"/>
      <point x="191" y="471"/>
      <point x="165" y="443"/>
      <point x="148" y="443" type="qcurve" smooth="yes"/>
      <point x="125" y="443"/>
      <point x="92" y="486"/>
      <point x="92" y="516" type="qcurve"/>
    </contour>
    <contour>
      <point x="258" y="516" type="line"/>
      <point x="258" y="568"/>
      <point x="305" y="653"/>
      <point x="344" y="676" type="qcurve"/>
      <point x="363" y="645" type="line"/>
      <point x="337" y="630"/>
      <point x="307" y="574"/>
      <point x="307" y="541" type="qcurve"/>
      <point x="328" y="541"/>
      <point x="356" y="513"/>
      <point x="356" y="492" type="qcurve" smooth="yes"/>
      <point x="356" y="471"/>
      <point x="331" y="443"/>
      <point x="313" y="443" type="qcurve" smooth="yes"/>
      <point x="290" y="443"/>
      <point x="258" y="486"/>
      <point x="258" y="516" type="qcurve"/>
    </contour>
  </outline>
</glyph>
<glyph name="quotedblright" format="1">
  <advance width="436"/>
  <unicode hex="201D"/>
  <outline>
    <contour>
      <point x="92" y="615" type="line"/>
      <point x="92" y="636"/>
      <point x="120" y="664"/>
      <point x="141" y="664" type="qcurve" smooth="yes"/>
      <point x="162" y="664"/>
      <point x="191" y="613"/>
      <point x="191" y="578" type="qcurve" smooth="yes"/>
      <point x="191" y="539"/>
      <point x="144" y="466"/>
      <point x="104" y="443" type="qcurve"/>
      <point x="92" y="467" type="line"/>
      <point x="115" y="481"/>
      <point x="141" y="534"/>
      <point x="141" y="565" type="qcurve"/>
      <point x="120" y="565"/>
      <point x="92" y="594"/>
      <point x="92" y="615" type="qcurve"/>
    </contour>
    <contour>
      <point x="246" y="615" type="line"/>
      <point x="246" y="636"/>
      <point x="274" y="664"/>
      <point x="295" y="664" type="qcurve" smooth="yes"/>
      <point x="316" y="664"/>
      <point x="344" y="613"/>
      <point x="344" y="578" type="qcurve" smooth="yes"/>
      <point x="344" y="539"/>
      <point x="297" y="466"/>
      <point x="258" y="443" type="qcurve"/>
      <point x="246" y="467" type="line"/>
      <point x="269" y="481"/>
      <point x="295" y="534"/>
      <point x="295" y="565" type="qcurve"/>
      <point x="274" y="565"/>
      <point x="246" y="594"/>
      <point x="246" y="615" type="qcurve"/>
    </contour>
  </outline>
</glyph>
<glyph name="ellipsis" format="1">
  <advance width="974"/>
  <unicode hex="2026"/>
  <outline>
    <contour>
      <point x="207" y="61" type="line"/>
      <point x="207" y="0" type="line"/>
      <point x="92" y="0" type="line"/>
      <point x="92" y="61" type="line"/>
      <point x="207" y="61" type="line"/>
    </contour>
    <contour>
      <point x="545" y="61" type="line"/>
      <point x="545" y="0" type="line"/>
      <point x="430" y="0" type="line"/>
      <point x="430" y="61" type="line"/>
      <point x="545" y="61" type="line"/>
    </contour>
    <contour>
      <point x="883" y="61" type="line"/>
      <point x="883" y="0" type="line"/>
      <point x="768" y="0" type="line"/>
      <point x="768" y="61" type="line"/>
      <point x="883" y="61" type="line"/>
    </contour>
  </outline>
</glyph>
<glyph name="minus" format="1">
  <advance width="491"/>
  <unicode hex="2212"/>
  <outline>
    <contour>
      <point x="92" y="246" type="line"/>
      <point x="92" y="295" type="line"/>
      <point x="400" y="295" type="line"/>
      <point x="400" y="246" type="line"/>
      <point x="92" y="246" type="line"/>
    </contour>
  </outline>
</glyph>
<glyph name="uni25CC" format="1">
  <advance width="781"/>
  <unicode hex="25CC"/>
  <outline>
    <contour>
      <point x="352" y="508" type="line"/>
      <point x="352" y="524"/>
      <point x="375" y="547"/>
      <point x="391" y="547" type="qcurve" smooth="yes"/>
      <point x="408" y="547"/>
      <point x="431" y="524"/>
      <point x="431" y="508" type="qcurve" smooth="yes"/>
      <point x="431" y="491"/>
      <point x="408" y="467"/>
      <point x="391" y="467" type="qcurve" smooth="yes"/>
      <point x="375" y="467"/>
      <point x="352" y="490"/>
      <point x="352" y="508" type="qcurve"/>
    </contour>
    <contour>
      <point x="352" y="-11" type="line"/>
      <point x="352" y="6"/>
      <point x="375" y="30"/>
      <point x="391" y="30" type="qcurve" smooth="yes"/>
      <point x="408" y="30"/>
      <point x="431" y="6"/>
      <point x="431" y="-11" type="qcurve" smooth="yes"/>
      <point x="431" y="-27"/>
      <point x="408" y="-50"/>
      <point x="391" y="-50" type="qcurve" smooth="yes"/>
      <point x="375" y="-50"/>
      <point x="352" y="-27"/>
      <point x="352" y="-11" type="qcurve"/>
    </contour>
    <contour>
      <point x="92" y="248" type="line"/>
      <point x="92" y="264"/>
      <point x="116" y="288"/>
      <point x="133" y="288" type="qcurve" smooth="yes"/>
      <point x="149" y="288"/>
      <point x="172" y="264"/>
      <point x="172" y="248" type="qcurve" smooth="yes"/>
      <point x="172" y="232"/>
      <point x="149" y="209"/>
      <point x="133" y="209" type="qcurve" smooth="yes"/>
      <point x="116" y="209"/>
      <point x="92" y="232"/>
      <point x="92" y="248" type="qcurve"/>
    </contour>
    <contour>
      <point x="610" y="248" type="line"/>
      <point x="610" y="264"/>
      <point x="633" y="288"/>
      <point x="650" y="288" type="qcurve" smooth="yes"/>
      <point x="666" y="288"/>
      <point x="690" y="264"/>
      <point x="690" y="248" type="qcurve" smooth="yes"/>
      <point x="690" y="232"/>
      <point x="666" y="209"/>
      <point x="650" y="209" type="qcurve" smooth="yes"/>
      <point x="633" y="209"/>
      <point x="610" y="232"/>
      <point x="610" y="248" type="qcurve"/>
    </contour>
    <contour>
      <point x="127" y="119" type="line"/>
      <point x="127" y="135"/>
      <point x="150" y="159"/>
      <point x="167" y="159" type="qcurve" smooth="yes"/>
      <point x="183" y="159"/>
      <point x="207" y="135"/>
      <point x="207" y="119" type="qcurve" smooth="yes"/>
      <point x="207" y="102"/>
      <point x="183" y="79"/>
      <point x="167" y="79" type="qcurve" smooth="yes"/>
      <point x="150" y="79"/>
      <point x="127" y="102"/>
      <point x="127" y="119" type="qcurve"/>
    </contour>
    <contour>
      <point x="575" y="377" type="line"/>
      <point x="575" y="394"/>
      <point x="599" y="418"/>
      <point x="615" y="418" type="qcurve" smooth="yes"/>
      <point x="631" y="418"/>
      <point x="654" y="395"/>
      <point x="654" y="377" type="qcurve" smooth="yes"/>
      <point x="654" y="361"/>
      <point x="631" y="338"/>
      <point x="615" y="338" type="qcurve" smooth="yes"/>
      <point x="599" y="338"/>
      <point x="575" y="361"/>
      <point x="575" y="377" type="qcurve"/>
    </contour>
    <contour>
      <point x="481" y="473" type="line"/>
      <point x="481" y="489"/>
      <point x="504" y="513"/>
      <point x="521" y="513" type="qcurve" smooth="yes"/>
      <point x="537" y="513"/>
      <point x="561" y="489"/>
      <point x="561" y="473" type="qcurve" smooth="yes"/>
      <point x="561" y="456"/>
      <point x="537" y="433"/>
      <point x="521" y="433" type="qcurve" smooth="yes"/>
      <point x="504" y="433"/>
      <point x="481" y="456"/>
      <point x="481" y="473" type="qcurve"/>
    </contour>
    <contour>
      <point x="223" y="23" type="line"/>
      <point x="223" y="40"/>
      <point x="246" y="65"/>
      <point x="262" y="65" type="qcurve" smooth="yes"/>
      <point x="278" y="65"/>
      <point x="301" y="41"/>
      <point x="301" y="23" type="qcurve" smooth="yes"/>
      <point x="301" y="7"/>
      <point x="278" y="-16"/>
      <point x="262" y="-16" type="qcurve" smooth="yes"/>
      <point x="246" y="-16"/>
      <point x="223" y="7"/>
      <point x="223" y="23" type="qcurve"/>
    </contour>
    <contour>
      <point x="127" y="377" type="line"/>
      <point x="127" y="394"/>
      <point x="150" y="418"/>
      <point x="167" y="418" type="qcurve" smooth="yes"/>
      <point x="183" y="418"/>
      <point x="207" y="395"/>
      <point x="207" y="377" type="qcurve" smooth="yes"/>
      <point x="207" y="361"/>
      <point x="183" y="338"/>
      <point x="167" y="338" type="qcurve" smooth="yes"/>
      <point x="150" y="338"/>
      <point x="127" y="361"/>
      <point x="127" y="377" type="qcurve"/>
    </contour>
    <contour>
      <point x="575" y="119" type="line"/>
      <point x="575" y="135"/>
      <point x="599" y="159"/>
      <point x="615" y="159" type="qcurve" smooth="yes"/>
      <point x="631" y="159"/>
      <point x="654" y="135"/>
      <point x="654" y="119" type="qcurve" smooth="yes"/>
      <point x="654" y="102"/>
      <point x="631" y="79"/>
      <point x="615" y="79" type="qcurve" smooth="yes"/>
      <point x="599" y="79"/>
      <point x="575" y="102"/>
      <point x="575" y="119" type="qcurve"/>
    </contour>
    <contour>
      <point x="223" y="473" type="line"/>
      <point x="223" y="489"/>
      <point x="246" y="513"/>
      <point x="262" y="513" type="qcurve" smooth="yes"/>
      <point x="278" y="513"/>
      <point x="301" y="489"/>
      <point x="301" y="473" type="qcurve" smooth="yes"/>
      <point x="301" y="456"/>
      <point x="278" y="433"/>
      <point x="262" y="433" type="qcurve" smooth="yes"/>
      <point x="246" y="433"/>
      <point x="223" y="456"/>
      <point x="223" y="473" type="qcurve"/>
    </contour>
    <contour>
      <point x="481" y="23" type="line"/>
      <point x="481" y="40"/>
      <point x="504" y="65"/>
      <point x="521" y="65" type="qcurve" smooth="yes"/>
      <point x="537" y="65"/>
      <point x="561" y="41"/>
      <point x="561" y="23" type="qcurve" smooth="yes"/>
      <point x="561" y="7"/>
      <point x="537" y="-16"/>
      <point x="521" y="-16" type="qcurve" smooth="yes"/>
      <point x="504" y="-16"/>
      <point x="481" y="7"/>
      <point x="481" y="23" type="qcurve"/>
    </contour>
  </outline>
</glyph>
<glyph name=".notdef" format="1">
  <advance width="983"/>
  <outline>
    <contour>
      <point x="123" y="861" type="line"/>
      <point x="861" y="861" type="line"/>
      <point x="861" y="0" type="line"/>
      <point x="123" y="0" type="line"/>
    </contour>
    <contour>
      <point x="799" y="61" type="line"/>
      <point x="799" y="799" type="line"/>
      <point x="184" y="799" type="line"/>
      <point x="184" y="61" type="line"/>
    </contour>
  </outline>
</glyph>
<glyph name="u0B9A_u0BCD.half" format="1">
  <advance width="567"/>
  <outline>
    <contour>
      <point x="219" y="270" type="line"/>
      <point x="342" y="270" type="line"/>
      <point x="342" y="443" type="line"/>
      <point x="219" y="443" type="line"/>
      <point x="219" y="270" type="line"/>
    </contour>
    <contour>
      <point x="96" y="160" type="line"/>
      <point x="96" y="110"/>
      <point x="175" y="37"/>
      <point x="231" y="37" type="qcurve" smooth="yes"/>
      <point x="276" y="37"/>
      <point x="342" y="95"/>
      <point x="342" y="135" type="qcurve" smooth="yes"/>
      <point x="342" y="221" type="line"/>
      <point x="157" y="221" type="line" smooth="yes"/>
      <point x="131" y="221"/>
      <point x="96" y="186"/>
      <point x="96" y="160" type="qcurve"/>
    </contour>
    <contour>
      <point x="157" y="492" type="line"/>
      <point x="551" y="492" type="line"/>
      <point x="551" y="443" type="line"/>
      <point x="403" y="443" type="line"/>
      <point x="403" y="270" type="line"/>
      <point x="551" y="270" type="line"/>
      <point x="551" y="221" type="line"/>
      <point x="403" y="221" type="line"/>
      <point x="403" y="135" type="line" smooth="yes"/>
      <point x="403" y="74"/>
      <point x="302" y="-12"/>
      <point x="231" y="-12" type="qcurve" smooth="yes"/>
      <point x="150" y="-12"/>
      <point x="34" y="89"/>
      <point x="34" y="160" type="qcurve" smooth="yes"/>
      <point x="34" y="205"/>
      <point x="107" y="270"/>
      <point x="157" y="270" type="qcurve"/>
      <point x="157" y="492" type="line"/>
    </contour>
    <contour>
      <point x="224" y="688" type="line"/>
      <point x="224" y="714"/>
      <point x="259" y="750"/>
      <point x="285" y="750" type="qcurve" smooth="yes"/>
      <point x="311" y="750"/>
      <point x="347" y="714"/>
      <point x="347" y="688" type="qcurve" smooth="yes"/>
      <point x="347" y="662"/>
      <point x="311" y="627"/>
      <point x="285" y="627" type="qcurve" smooth="yes"/>
      <point x="259" y="627"/>
      <point x="224" y="663"/>
      <point x="224" y="688" type="qcurve"/>
    </contour>
  </outline>
</glyph>
<glyph name="u0BAE_u0BC0.abvs" format="1">
  <advance width="827"/>
  <outline>
    <contour>
      <point x="449" y="369" type="line"/>
      <point x="449" y="49" type="line"/>
      <point x="621" y="49" type="line" smooth="yes"/>
      <point x="657" y="49"/>
      <point x="707" y="128"/>
      <point x="707" y="184" type="qcurve" smooth="yes"/>
      <point x="707" y="296"/>
      <point x="599" y="455"/>
      <point x="522" y="455" type="qcurve" smooth="yes"/>
      <point x="491" y="455"/>
      <point x="449" y="404"/>
      <point x="449" y="369" type="qcurve"/>
    </contour>
    <contour>
      <point x="516" y="504" type="line"/>
      <point x="473" y="529"/>
      <point x="424" y="621"/>
      <point x="424" y="676" type="qcurve" smooth="yes"/>
      <point x="424" y="747"/>
      <point x="532" y="848"/>
      <point x="608" y="848" type="qcurve" smooth="yes"/>
      <point x="684" y="848"/>
      <point x="793" y="770"/>
      <point x="793" y="713" type="qcurve" smooth="yes"/>
      <point x="793" y="663"/>
      <point x="720" y="590"/>
      <point x="670" y="590" type="qcurve" smooth="yes"/>
      <point x="620" y="590"/>
      <point x="547" y="663"/>
      <point x="547" y="713" type="qcurve" smooth="yes"/>
      <point x="547" y="734"/>
      <point x="565" y="778"/>
      <point x="584" y="799" type="qcurve"/>
      <point x="541" y="792"/>
      <point x="486" y="722"/>
      <point x="486" y="676" type="qcurve" smooth="yes"/>
      <point x="486" y="623"/>
      <point x="552" y="525"/>
      <point x="608" y="492" type="qcurve"/>
      <point x="681" y="466"/>
      <point x="768" y="296"/>
      <point x="768" y="184" type="qcurve" smooth="yes"/>
      <point x="768" y="108"/>
      <point x="682" y="0"/>
      <point x="621" y="0" type="qcurve" smooth="yes"/>
      <point x="92" y="0" type="line"/>
      <point x="92" y="492" type="line"/>
      <point x="154" y="492" type="line"/>
      <point x="154" y="49" type="line"/>
      <point x="387" y="49" type="line"/>
      <point x="387" y="369" type="line" smooth="yes"/>
      <point x="387" y="426"/>
      <point x="463" y="504"/>
      <point x="516" y="504" type="qcurve"/>
    </contour>
    <contour>
      <point x="608" y="713" type="line"/>
      <point x="608" y="682"/>
      <point x="644" y="639"/>
      <point x="670" y="639" type="qcurve" smooth="yes"/>
      <point x="696" y="639"/>
      <point x="731" y="682"/>
      <point x="731" y="713" type="qcurve" smooth="yes"/>
      <point x="731" y="744"/>
      <point x="696" y="787"/>
      <point x="670" y="787" type="qcurve" smooth="yes"/>
      <point x="644" y="787"/>
      <point x="608" y="744"/>
      <point x="608" y="713" type="qcurve"/>
    </contour>
  </outline>
</glyph>
<glyph name="u0BAE_u0BCD.half" format="1">
  <advance width="824"/>
  <outline>
    <contour>
      <point x="449" y="369" type="line"/>
      <point x="449" y="49" type="line"/>
      <point x="621" y="49" type="line" smooth="yes"/>
      <point x="657" y="49"/>
      <point x="707" y="128"/>
      <point x="707" y="184" type="qcurve" smooth="yes"/>
      <point x="707" y="296"/>
      <point x="599" y="455"/>
      <point x="522" y="455" type="qcurve" smooth="yes"/>
      <point x="491" y="455"/>
      <point x="449" y="404"/>
      <point x="449" y="369" type="qcurve"/>
    </contour>
    <contour>
      <point x="522" y="504" type="line"/>
      <point x="624" y="504"/>
      <point x="768" y="317"/>
      <point x="768" y="184" type="qcurve" smooth="yes"/>
      <point x="768" y="108"/>
      <point x="682" y="0"/>
      <point x="621" y="0" type="qcurve" smooth="yes"/>
      <point x="92" y="0" type="line"/>
      <point x="92" y="492" type="line"/>
      <point x="154" y="492" type="line"/>
      <point x="154" y="49" type="line"/>
      <point x="387" y="49" type="line"/>
      <point x="387" y="369" type="line" smooth="yes"/>
      <point x="387" y="426"/>
      <point x="466" y="504"/>
      <point x="522" y="504" type="qcurve"/>
    </contour>
    <contour>
      <point x="352" y="688" type="line"/>
      <point x="352" y="714"/>
      <point x="387" y="750"/>
      <point x="413" y="750" type="qcurve" smooth="yes"/>
      <point x="439" y="750"/>
      <point x="475" y="714"/>
      <point x="475" y="688" type="qcurve" smooth="yes"/>
      <point x="475" y="662"/>
      <point x="439" y="627"/>
      <point x="413" y="627" type="qcurve" smooth="yes"/>
      <point x="387" y="627"/>
      <point x="352" y="663"/>
      <point x="352" y="688" type="qcurve"/>
    </contour>
  </outline>
</glyph>
<glyph name="u0BAF_u0BCD.half" format="1">
  <advance width="878"/>
  <outline>
    <contour>
      <point x="725" y="49" type="line"/>
      <point x="725" y="492" type="line"/>
      <point x="787" y="492" type="line"/>
      <point x="787" y="0" type="line"/>
      <point x="307" y="0" type="line"/>
      <point x="307" y="31" type="line"/>
      <point x="290" y="10"/>
      <point x="238" y="-12"/>
      <point x="209" y="-12" type="qcurve" smooth="yes"/>
      <point x="159" y="-12"/>
      <point x="86" y="74"/>
      <point x="86" y="135" type="qcurve" smooth="yes"/>
      <point x="86" y="492" type="line"/>
      <point x="148" y="492" type="line"/>
      <point x="148" y="135" type="line" smooth="yes"/>
      <point x="148" y="94"/>
      <point x="183" y="37"/>
      <point x="209" y="37" type="qcurve" smooth="yes"/>
      <point x="250" y="37"/>
      <point x="307" y="102"/>
      <point x="307" y="148" type="qcurve" smooth="yes"/>
      <point x="307" y="492" type="line"/>
      <point x="369" y="492" type="line"/>
      <point x="369" y="49" type="line"/>
      <point x="725" y="49" type="line"/>
    </contour>
    <contour>
      <point x="379" y="688" type="line"/>
      <point x="379" y="714"/>
      <point x="414" y="750"/>
      <point x="440" y="750" type="qcurve" smooth="yes"/>
      <point x="466" y="750"/>
      <point x="502" y="714"/>
      <point x="502" y="688" type="qcurve" smooth="yes"/>
      <point x="502" y="662"/>
      <point x="466" y="627"/>
      <point x="440" y="627" type="qcurve" smooth="yes"/>
      <point x="414" y="627"/>
      <point x="379" y="663"/>
      <point x="379" y="688" type="qcurve"/>
    </contour>
  </outline>
</glyph>
<glyph name="u0BB0_u0BBF.abvs" format="1">
  <advance width="737"/>
  <outline>
    <contour>
      <point x="387" y="0" type="qcurve"/>
      <point x="387" y="443" type="line"/>
      <point x="510" y="443" type="line"/>
      <point x="510" y="492" type="line"/>
      <point x="375" y="492" type="line"/>
      <point x="336" y="515"/>
      <point x="289" y="588"/>
      <point x="289" y="627" type="qcurve" smooth="yes"/>
      <point x="289" y="683"/>
      <point x="371" y="762"/>
      <point x="430" y="762" type="qcurve" smooth="yes"/>
      <point x="494" y="762"/>
      <point x="584" y="661"/>
      <point x="584" y="590" type="qcurve" smooth="yes"/>
      <point x="584" y="0" type="line"/>
      <point x="645" y="0" type="line"/>
      <point x="645" y="590" type="line" smooth="yes"/>
      <point x="645" y="682"/>
      <point x="519" y="811"/>
      <point x="430" y="811" type="qcurve" smooth="yes"/>
      <point x="347" y="811"/>
      <point x="227" y="703"/>
      <point x="227" y="627" type="qcurve" smooth="yes"/>
      <point x="227" y="584"/>
      <point x="267" y="512"/>
      <point x="301" y="492" type="qcurve"/>
      <point x="92" y="492" type="line"/>
      <point x="92" y="0" type="line"/>
      <point x="154" y="0" type="line"/>
      <point x="154" y="443" type="line"/>
      <point x="326" y="443" type="line"/>
      <point x="326" y="31" type="line"/>
      <point x="268" y="-2"/>
      <point x="190" y="-115"/>
      <point x="178" y="-184" type="qcurve"/>
      <point x="234" y="-197" type="line"/>
      <point x="246" y="-127"/>
      <point x="328" y="-21"/>
    </contour>
  </outline>
</glyph>
<glyph name="u0BB0_u0BC0.abvs" format="1">
  <advance width="529"/>
  <outline>
    <contour>
      <point x="387" y="0" type="qcurve"/>
      <point x="387" y="443" type="line"/>
      <point x="522" y="443" type="line"/>
      <point x="522" y="492" type="line"/>
      <point x="350" y="492" type="line"/>
      <point x="288" y="527"/>
      <point x="215" y="627"/>
      <point x="215" y="676" type="qcurve" smooth="yes"/>
      <point x="215" y="720"/>
      <point x="278" y="790"/>
      <point x="326" y="799" type="qcurve"/>
      <point x="302" y="786"/>
      <point x="277" y="740"/>
      <point x="277" y="713" type="qcurve" smooth="yes"/>
      <point x="277" y="663"/>
      <point x="350" y="590"/>
      <point x="400" y="590" type="qcurve" smooth="yes"/>
      <point x="450" y="590"/>
      <point x="522" y="663"/>
      <point x="522" y="713" type="qcurve" smooth="yes"/>
      <point x="522" y="770"/>
      <point x="425" y="848"/>
      <point x="356" y="848" type="qcurve" smooth="yes"/>
      <point x="273" y="848"/>
      <point x="154" y="747"/>
      <point x="154" y="676" type="qcurve" smooth="yes"/>
      <point x="154" y="621"/>
      <point x="212" y="522"/>
      <point x="264" y="492" type="qcurve"/>
      <point x="92" y="492" type="line"/>
      <point x="92" y="0" type="line"/>
      <point x="154" y="0" type="line"/>
      <point x="154" y="443" type="line"/>
      <point x="326" y="443" type="line"/>
      <point x="326" y="30" type="line"/>
      <point x="268" y="-3"/>
      <point x="190" y="-116"/>
      <point x="178" y="-185" type="qcurve"/>
      <point x="234" y="-198" type="line"/>
      <point x="246" y="-128"/>
      <point x="328" y="-21"/>
    </contour>
    <contour>
      <point x="338" y="713" type="qcurve"/>
      <point x="338" y="744"/>
      <point x="374" y="787"/>
      <point x="400" y="787" type="qcurve" smooth="yes"/>
      <point x="425" y="787"/>
      <point x="461" y="744"/>
      <point x="461" y="713" type="qcurve" smooth="yes"/>
      <point x="461" y="682"/>
      <point x="426" y="639"/>
      <point x="400" y="639" type="qcurve" smooth="yes"/>
      <point x="374" y="639"/>
      <point x="338" y="682"/>
    </contour>
  </outline>
</glyph>
<glyph name="u0BB0_u0BCD.half" format="1">
  <advance width="535"/>
  <outline>
    <contour>
      <point x="92" y="492" type="line"/>
      <point x="529" y="492" type="line"/>
      <point x="529" y="443" type="line"/>
      <point x="387" y="443" type="line"/>
      <point x="387" y="0" type="line"/>
      <point x="328" y="-21"/>
      <point x="246" y="-127"/>
      <point x="234" y="-197" type="qcurve"/>
      <point x="178" y="-184" type="line"/>
      <point x="190" y="-115"/>
      <point x="268" y="-2"/>
      <point x="326" y="31" type="qcurve"/>
      <point x="326" y="443" type="line"/>
      <point x="154" y="443" type="line"/>
      <point x="154" y="0" type="line"/>
      <point x="92" y="0" type="line"/>
    </contour>
    <contour>
      <point x="208" y="688" type="qcurve"/>
      <point x="208" y="714"/>
      <point x="243" y="750"/>
      <point x="269" y="750" type="qcurve" smooth="yes"/>
      <point x="295" y="750"/>
      <point x="331" y="714"/>
      <point x="331" y="688" type="qcurve" smooth="yes"/>
      <point x="331" y="662"/>
      <point x="295" y="627"/>
      <point x="269" y="627" type="qcurve" smooth="yes"/>
      <point x="243" y="627"/>
      <point x="208" y="663"/>
    </contour>
  </outline>
</glyph>
<glyph name="u0BB1_u0BC2.blws" format="1">
  <advance width="1048"/>
  <outline>
    <contour>
      <point x="89" y="369" type="line"/>
      <point x="89" y="426"/>
      <point x="167" y="504"/>
      <point x="224" y="504" type="qcurve" smooth="yes"/>
      <point x="256" y="504"/>
      <point x="312" y="471"/>
      <point x="328" y="443" type="qcurve"/>
      <point x="344" y="471"/>
      <point x="414" y="504"/>
      <point x="457" y="504" type="qcurve" smooth="yes"/>
      <point x="528" y="504"/>
      <point x="629" y="317"/>
      <point x="629" y="184" type="qcurve" smooth="yes"/>
      <point x="629" y="131"/>
      <point x="601" y="1"/>
      <point x="574" y="-74" type="qcurve"/>
      <point x="703" y="-74" type="line"/>
      <point x="703" y="492" type="line"/>
      <point x="1035" y="492" type="line"/>
      <point x="1035" y="443" type="line"/>
      <point x="949" y="443" type="line"/>
      <point x="949" y="-123" type="line"/>
      <point x="888" y="-123" type="line"/>
      <point x="888" y="443" type="line"/>
      <point x="765" y="443" type="line"/>
      <point x="765" y="-123" type="line"/>
      <point x="556" y="-123" type="line"/>
      <point x="503" y="-214"/>
      <point x="338" y="-320"/>
      <point x="248" y="-320" type="qcurve" smooth="yes"/>
      <point x="151" y="-320"/>
      <point x="15" y="-219"/>
      <point x="15" y="-148" type="qcurve" smooth="yes"/>
      <point x="15" y="-117"/>
      <point x="65" y="-74"/>
      <point x="101" y="-74" type="qcurve" smooth="yes"/>
      <point x="513" y="-74" type="line"/>
      <point x="540" y="-15"/>
      <point x="568" y="118"/>
      <point x="568" y="191" type="qcurve" smooth="yes"/>
      <point x="568" y="300"/>
      <point x="492" y="455"/>
      <point x="439" y="455" type="qcurve" smooth="yes"/>
      <point x="406" y="455"/>
      <point x="359" y="404"/>
      <point x="359" y="369" type="qcurve" smooth="yes"/>
      <point x="359" y="0" type="line"/>
      <point x="297" y="0" type="line"/>
      <point x="297" y="369" type="line" smooth="yes"/>
      <point x="297" y="405"/>
      <point x="254" y="455"/>
      <point x="224" y="455" type="qcurve" smooth="yes"/>
      <point x="193" y="455"/>
      <point x="150" y="404"/>
      <point x="150" y="369" type="qcurve" smooth="yes"/>
      <point x="150" y="0" type="line"/>
      <point x="89" y="0" type="line"/>
      <point x="89" y="369" type="line"/>
    </contour>
    <contour>
      <point x="76" y="-148" type="line"/>
      <point x="76" y="-198"/>
      <point x="177" y="-270"/>
      <point x="248" y="-270" type="qcurve" smooth="yes"/>
      <point x="316" y="-270"/>
      <point x="446" y="-192"/>
      <point x="494" y="-123" type="qcurve"/>
      <point x="101" y="-123" type="line" smooth="yes"/>
      <point x="91" y="-123"/>
      <point x="76" y="-138"/>
      <point x="76" y="-148" type="qcurve"/>
    </contour>
  </outline>
</glyph>
<glyph name="u0BB2_u0BCD.half" format="1">
  <advance width="850"/>
  <outline>
    <contour>
      <point x="189" y="123" type="line"/>
      <point x="189" y="87"/>
      <point x="232" y="37"/>
      <point x="263" y="37" type="qcurve" smooth="yes"/>
      <point x="294" y="37"/>
      <point x="337" y="87"/>
      <point x="337" y="123" type="qcurve" smooth="yes"/>
      <point x="337" y="159"/>
      <point x="294" y="209"/>
      <point x="263" y="209" type="qcurve" smooth="yes"/>
      <point x="232" y="209"/>
      <point x="189" y="159"/>
      <point x="189" y="123" type="qcurve"/>
    </contour>
    <contour>
      <point x="730" y="270" type="line"/>
      <point x="730" y="336"/>
      <point x="658" y="456"/>
      <point x="595" y="492" type="qcurve"/>
      <point x="632" y="529" type="line"/>
      <point x="706" y="486"/>
      <point x="792" y="348"/>
      <point x="792" y="270" type="qcurve" smooth="yes"/>
      <point x="792" y="153"/>
      <point x="669" y="-12"/>
      <point x="583" y="-12" type="qcurve" smooth="yes"/>
      <point x="526" y="-12"/>
      <point x="447" y="60"/>
      <point x="447" y="111" type="qcurve" smooth="yes"/>
      <point x="447" y="356" type="line" smooth="yes"/>
      <point x="447" y="397"/>
      <point x="382" y="455"/>
      <point x="337" y="455" type="qcurve" smooth="yes"/>
      <point x="240" y="455"/>
      <point x="103" y="318"/>
      <point x="103" y="221" type="qcurve" smooth="yes"/>
      <point x="103" y="164"/>
      <point x="129" y="81"/>
      <point x="152" y="61" type="qcurve"/>
      <point x="146" y="68"/>
      <point x="140" y="107"/>
      <point x="140" y="135" type="qcurve" smooth="yes"/>
      <point x="140" y="185"/>
      <point x="213" y="258"/>
      <point x="263" y="258" type="qcurve" smooth="yes"/>
      <point x="313" y="258"/>
      <point x="386" y="179"/>
      <point x="386" y="123" type="qcurve" smooth="yes"/>
      <point x="386" y="66"/>
      <point x="313" y="-12"/>
      <point x="263" y="-12" type="qcurve" smooth="yes"/>
      <point x="177" y="-12"/>
      <point x="54" y="124"/>
      <point x="54" y="221" type="qcurve" smooth="yes"/>
      <point x="54" y="338"/>
      <point x="220" y="504"/>
      <point x="337" y="504" type="qcurve" smooth="yes"/>
      <point x="408" y="504"/>
      <point x="509" y="418"/>
      <point x="509" y="356" type="qcurve" smooth="yes"/>
      <point x="509" y="111" type="line" smooth="yes"/>
      <point x="509" y="80"/>
      <point x="552" y="37"/>
      <point x="583" y="37" type="qcurve" smooth="yes"/>
      <point x="644" y="37"/>
      <point x="730" y="173"/>
      <point x="730" y="270" type="qcurve"/>
    </contour>
    <contour>
      <point x="365" y="688" type="line"/>
      <point x="365" y="714"/>
      <point x="401" y="750"/>
      <point x="427" y="750" type="qcurve" smooth="yes"/>
      <point x="453" y="750"/>
      <point x="488" y="714"/>
      <point x="488" y="688" type="qcurve" smooth="yes"/>
      <point x="488" y="662"/>
      <point x="452" y="627"/>
      <point x="427" y="627" type="qcurve" smooth="yes"/>
      <point x="401" y="627"/>
      <point x="365" y="663"/>
      <point x="365" y="688" type="qcurve"/>
    </contour>
  </outline>
</glyph>
<glyph name="u0BB6_u0BBF.abvs" format="1">
  <advance width="1223"/>
  <outline>
    <contour>
      <point x="691" y="444" type="line"/>
      <point x="691" y="129" type="line" smooth="yes"/>
      <point x="691" y="50"/>
      <point x="895" y="50"/>
      <point x="895" y="129" type="qcurve" smooth="yes"/>
      <point x="895" y="444" type="line"/>
    </contour>
    <contour>
      <point x="687" y="493" type="line"/>
      <point x="670" y="524"/>
      <point x="661" y="551" type="qcurve" smooth="yes"/>
      <point x="651" y="579"/>
      <point x="651" y="602" type="qcurve" smooth="yes"/>
      <point x="651" y="688"/>
      <point x="795" y="811"/>
      <point x="897" y="811" type="qcurve" smooth="yes"/>
      <point x="994" y="811"/>
      <point x="1131" y="696"/>
      <point x="1131" y="614" type="qcurve" smooth="yes"/>
      <point x="1131" y="0" type="line"/>
      <point x="1069" y="0" type="line"/>
      <point x="1069" y="614" type="line" smooth="yes"/>
      <point x="1069" y="675"/>
      <point x="969" y="762"/>
      <point x="897" y="762" type="qcurve" smooth="yes"/>
      <point x="821" y="762"/>
      <point x="713" y="669"/>
      <point x="713" y="602" type="qcurve" smooth="yes"/>
      <point x="713" y="576"/>
      <point x="726" y="548" type="qcurve" smooth="yes"/>
      <point x="739" y="521"/>
      <point x="760" y="493" type="qcurve"/>
      <point x="959" y="493" type="line"/>
      <point x="959" y="129" type="line" smooth="yes"/>
      <point x="959" y="1"/>
      <point x="787" y="1" type="qcurve" smooth="yes"/>
      <point x="627" y="1"/>
      <point x="627" y="129" type="qcurve" smooth="yes"/>
      <point x="627" y="444" type="line"/>
      <point x="424" y="444" type="line"/>
      <point x="424" y="156" type="line" smooth="yes"/>
      <point x="424" y="1"/>
      <point x="229" y="1" type="qcurve" smooth="yes"/>
      <point x="94" y="1"/>
      <point x="93" y="126" type="qcurve"/>
      <point x="93" y="493" type="line"/>
      <point x="157" y="493" type="line"/>
      <point x="157" y="139" type="line" smooth="yes"/>
      <point x="157" y="50"/>
      <point x="242" y="50" type="qcurve" smooth="yes"/>
      <point x="361" y="49"/>
      <point x="361" y="153" type="qcurve" smooth="yes"/>
      <point x="361" y="493" type="line"/>
    </contour>
  </outline>
</glyph>
<glyph name="u0BB6_u0BC0.half" format="1">
  <advance width="1051"/>
  <outline>
    <contour>
      <point x="658" y="676" type="qcurve" smooth="yes"/>
      <point x="658" y="747"/>
      <point x="774" y="848"/>
      <point x="855" y="848" type="qcurve" smooth="yes"/>
      <point x="926" y="848"/>
      <point x="1027" y="770"/>
      <point x="1027" y="713" type="qcurve" smooth="yes"/>
      <point x="1027" y="663"/>
      <point x="954" y="590"/>
      <point x="854" y="590"/>
      <point x="781" y="663"/>
      <point x="781" y="713" type="qcurve" smooth="yes"/>
      <point x="781" y="740"/>
      <point x="807" y="786"/>
      <point x="830" y="799" type="qcurve"/>
      <point x="782" y="790"/>
      <point x="719" y="720"/>
      <point x="719" y="676" type="qcurve" smooth="yes"/>
      <point x="719" y="627"/>
      <point x="757.5" y="575.5" type="qcurve" smooth="yes"/>
      <point x="795.452" y="524.733"/>
      <point x="857.211" y="490" type="qcurve"/>
      <point x="959" y="490" type="line"/>
      <point x="959" y="127" type="line" smooth="yes"/>
      <point x="959" y="-1"/>
      <point x="787" y="-1" type="qcurve" smooth="yes"/>
      <point x="627" y="-1"/>
      <point x="627" y="127" type="qcurve" smooth="yes"/>
      <point x="627" y="441" type="line"/>
      <point x="424" y="441" type="line"/>
      <point x="424" y="154" type="line" smooth="yes"/>
      <point x="424" y="-1"/>
      <point x="229" y="-1" type="qcurve" smooth="yes"/>
      <point x="94" y="-1"/>
      <point x="93" y="124" type="qcurve"/>
      <point x="93" y="490" type="line"/>
      <point x="157" y="490" type="line"/>
      <point x="157" y="136" type="line" smooth="yes"/>
      <point x="157" y="47"/>
      <point x="242" y="48" type="qcurve"/>
      <point x="361" y="47"/>
      <point x="361" y="151" type="qcurve" smooth="yes"/>
      <point x="361" y="490" type="line"/>
      <point x="771.282" y="490" type="line"/>
      <point x="720.478" y="519.845"/>
      <point x="689.5" y="570" type="qcurve" smooth="yes"/>
      <point x="658" y="621"/>
    </contour>
    <contour>
      <point x="842" y="682"/>
      <point x="878" y="639"/>
      <point x="930" y="639"/>
      <point x="965" y="682"/>
      <point x="965" y="744"/>
      <point x="930" y="787"/>
      <point x="878" y="787"/>
      <point x="842" y="744"/>
    </contour>
    <contour>
      <point x="691" y="441" type="line"/>
      <point x="691" y="127" type="line" smooth="yes"/>
      <point x="691" y="48"/>
      <point x="895" y="48"/>
      <point x="895" y="127" type="qcurve" smooth="yes"/>
      <point x="895" y="441" type="line"/>
    </contour>
  </outline>
</glyph>
